<?xml version="1.0" encoding="UTF-8" standalone="no"?>
<!-- Generator: Adobe Illustrator 12.0.0, SVG Export Plug-In . SVG Version: 6.00 Build 51448)  -->

<svg
   xmlns:dc="http://purl.org/dc/elements/1.1/"
   xmlns:cc="http://creativecommons.org/ns#"
   xmlns:rdf="http://www.w3.org/1999/02/22-rdf-syntax-ns#"
   xmlns:svg="http://www.w3.org/2000/svg"
   xmlns="http://www.w3.org/2000/svg"
   xmlns:sodipodi="http://sodipodi.sourceforge.net/DTD/sodipodi-0.dtd"
   xmlns:inkscape="http://www.inkscape.org/namespaces/inkscape"
   version="1.1"
   id="Layer_1"
   width="641.003"
   height="590.463"
   viewBox="0 0 641.003 590.463"
   overflow="visible"
   enable-background="new 0 0 641.003 590.463"
   xml:space="preserve"
   inkscape:version="0.48.2 r9819"
   sodipodi:docname="Celia_Inside_Logo.svg"><metadata
   id="metadata3097"><rdf:RDF><cc:Work
       rdf:about=""><dc:format>image/svg+xml</dc:format><dc:type
         rdf:resource="http://purl.org/dc/dcmitype/StillImage" /><dc:title /></cc:Work></rdf:RDF></metadata><defs
   id="defs3095">
	
	
	
	
	
	
	
	
	
	
	
	
	
	
	
	
</defs><sodipodi:namedview
   pagecolor="#ffffff"
   bordercolor="#666666"
   borderopacity="1"
   objecttolerance="10"
   gridtolerance="10"
   guidetolerance="10"
   inkscape:pageopacity="0"
   inkscape:pageshadow="2"
   inkscape:window-width="1680"
   inkscape:window-height="988"
   id="namedview3093"
   showgrid="false"
   inkscape:zoom="2.8509174"
   inkscape:cx="320.01591"
   inkscape:cy="239.25123"
   inkscape:window-x="-8"
   inkscape:window-y="-8"
   inkscape:window-maximized="1"
   inkscape:current-layer="Layer_1" />
<path
   style="fill:#007dc5;fill-rule:evenodd"
   inkscape:connector-curvature="0"
   id="path3061"
   d="m 543.168,88.286 10.211,-71.471 c 0,0 -85.691,-31.725 -213.316,-8.021 C 213.528,31.038 118.356,106.518 77.516,146.629 37.77,186.375 -7.082,258.94 0.94,355.936 c 7.295,98.086 68.553,166.641 133.824,200.188 65.273,33.547 176.854,48.867 276.768,16.414 29.535,-10.211 153.148,-45.945 206.387,-164.461 45.945,-100.273 9.117,-184.871 9.117,-184.871 0,0 -39.746,-123.616 -191.075,-140.024 v 58.344 c 0,0 88.973,1.822 138.93,65.27 48.133,61.26 52.145,120.695 18.598,187.789 -13.492,23.703 -82.773,149.141 -285.152,158.625 -14.221,0 -153.15,5.836 -233.736,-87.883 C 8.235,386.569 22.456,323.116 26.467,300.874 28.655,293.581 34.488,276.079 38.863,266.964 54.908,229.403 97.937,163.038 173.416,124.021 286.092,66.773 363.398,45.259 467.687,59.845 c 11.302,1.822 55.06,10.21 75.481,28.441 l 0,0 z m -98.82,29.537 c 0,-10.211 9.117,-19.326 19.328,-19.326 11.301,0 20.418,9.115 20.418,19.326 0,11.303 -9.117,20.42 -20.418,20.42 -10.211,0 -19.328,-9.118 -19.328,-20.42 l 0,0 z"
   clip-rule="evenodd" /><path
   style="fill:#007dc5;fill-rule:evenodd"
   inkscape:connector-curvature="0"
   id="path3063"
   d="m 463.676,254.93 c 0,0 0,-1.096 0,-2.189 1.094,-1.094 2.914,-2.918 6.195,-4.01 6.93,-1.094 14.223,-2.189 23.34,4.01 0,0 0,0 1.094,0 0,0 0,1.094 1.094,1.094 1.094,1.096 1.094,2.918 0,6.199 0,5.834 -4.012,167.371 -4.012,167.371 l 0,0 v 1.094 c -1.094,1.094 -2.188,1.094 -4.375,1.828 -2.918,1.086 -12.035,-0.734 -14.223,-1.828 l 0,0 c -1.094,-1.094 -1.094,-1.094 -1.094,-1.094 -0.727,-1.094 -1.824,-2.188 -1.824,-2.914 v -22.609 c 0,0 0,0 0,-1.094 v -1.094 c -1.094,-0.734 -3.281,-0.734 -5.102,2.188 0,0 -2.188,4.008 -5.105,8.023 -3.281,5.102 -6.199,10.211 -8.387,12.398 0,0 -8.023,7.289 -16.043,2.914 0,0 0,0 -2.191,-0.727 -1.094,0 -2.188,-2.188 -4.008,-4.375 -3.285,-4.016 -7.293,-10.945 -8.387,-23.336 -2.918,-24.438 1.094,-60.172 15.313,-73.664 0,0 1.094,-0.727 2.188,-1.82 1.094,-1.093 2.918,-3.281 6.199,-5.109 4.012,-4.008 11.305,-8.383 20.422,-9.477 0,0 1.094,0 1.094,-0.734 l -2.188,-50.316 c 0,0 0,0 0,-0.729 l 0,0 z m 1.094,77.67 c -1.094,-1.094 -2.188,-1.094 -4.012,1.82 -1.094,0 -14.586,13.492 -15.316,48.133 0,1.094 0,2.922 0,6.203 0,2.914 0,6.922 0.73,8.023 1.094,0 4.375,0 9.48,-5.109 0.73,-2.188 2.918,-2.914 4.012,-4.008 1.094,-2.188 1.824,-3.289 2.918,-5.109 2.188,-3.281 3.281,-7.289 3.281,-12.398 v -34.641 c 0,0 0,0 0,-1.094 10e-4,0 10e-4,-1.093 -1.093,-1.82 l 0,0 z"
   clip-rule="evenodd" /><path
   style="fill:#007dc5;fill-rule:evenodd"
   inkscape:connector-curvature="0"
   id="path3067"
   d="m 411.532,331.506 c 0,1.094 0,1.094 0,1.094 1.094,0.727 1.094,0.727 1.094,1.82 0,2.188 -2.188,96.992 -2.188,96.992 0,0 0,6.203 -2.918,7.297 -4.012,1.094 -15.316,1.094 -18.598,-2.188 l 0,0 c -0.73,0 -0.73,-1.094 -1.824,-1.094 0,-0.727 -1.094,-2.914 -1.094,-4.016 l -2.918,-105.016 h 16.047 l 12.399,5.111 0,0 z"
   clip-rule="evenodd" /><path
   style="fill:#007dc5;fill-rule:evenodd"
   inkscape:connector-curvature="0"
   id="path3069"
   d="m 371.786,336.608 c 0,-1.094 0,0 0,0 0,1.094 0,1.094 0,1.828 0,2.188 0,3.273 -2.188,5.102 0,0 -1.824,2.188 -4.012,5.102 -2.188,2.188 -4.012,5.109 -6.199,9.484 -5.105,5.836 -10.211,12.031 -13.129,15.313 l 0,0 c -1.094,0 -1.094,0.734 -1.094,0.734 0,1.094 -1.094,2.188 -1.094,4.375 0,1.82 1.094,4.008 3.281,5.102 5.105,1.828 19.328,12.031 26.254,25.523 0,0 0,0.734 0,1.828 1.098,1.094 1.098,3.281 2.191,6.195 0,4.016 0,11.305 -4.012,17.508 -3.281,5.828 -9.117,14.219 -14.223,21.148 -4.375,6.195 -8.387,11.305 -8.387,11.305 -1.094,1.094 -10.211,8.383 -17.137,3.281 0,0 -1.094,-1.094 -2.188,-2.188 -1.098,0 -2.918,-2.188 -4.012,-2.922 -2.189,-3.281 -4.012,-7.289 -1.096,-11.305 l 22.607,-32.813 c 0,0 0.73,-1.094 1.824,-2.922 1.094,-2.188 1.094,-5.102 -1.824,-8.383 -5.102,-4.016 -27.713,-27.352 -27.713,-29.539 l 0,0 c 0,-1.094 -1.092,-1.094 -1.092,-1.82 -1.096,-1.094 -1.096,-2.188 -1.824,-4.375 -1.094,-4.016 -2.188,-8.023 0.729,-13.133 5.105,-6.195 10.213,-14.219 15.314,-21.508 6.199,-6.93 13.492,-14.227 20.422,-16.414 0,0 1.094,-0.727 3.281,-0.727 1.824,-1.094 5.105,-1.094 6.199,0 4.016,0.729 6.934,8.026 9.122,14.221 l 0,0 z"
   clip-rule="evenodd" /><path
   style="fill:#007dc5;fill-rule:evenodd"
   inkscape:connector-curvature="0"
   id="path3071"
   d="m 264.579,386.569 0,0 0.73,1.094 c 1.092,1.094 2.188,0 3.281,-1.094 h 1.094 v -1.094 c 0,0 0,-1.102 0,-1.828 0,-2.188 0.729,-4.375 1.824,-6.195 2.188,-5.109 5.105,-10.211 11.303,-12.398 0,0 17.504,-5.109 23.703,8.383 0,0 0.729,0.734 0.729,2.922 1.094,2.914 3.281,7.289 4.375,13.125 1.824,13.492 5.105,39.016 2.918,79.859 0,0 0,8.016 -5.105,11.305 0,0 0,0 -1.094,0 0,0 -1.094,1.094 -2.918,1.094 -2.188,0 -5.104,-1.094 -9.115,-3.281 h -1.094 c 0,-1.102 -1.094,-1.102 -1.094,-1.102 -1.094,-0.727 -2.918,-2.914 -2.918,-6.195 0,0 -7.293,-63.086 -8.387,-69.281 0,-4.008 -1.824,-6.203 -4.012,-7.297 -1.094,-0.727 -2.916,-0.727 -5.104,2.195 0,0 -3.283,5.102 -7.295,13.125 -2.916,7.289 -6.926,17.5 -6.926,27.711 0.729,20.422 1.822,32.82 1.822,32.82 0,0 0,0 0,0.727 v 1.094 c 0,1.094 -1.094,3.281 -1.822,4.375 -3.283,1.828 -12.398,5.109 -18.598,1.828 0,-1.102 0,-1.102 -1.094,-1.102 0,0 -0.73,0 -0.73,-0.727 -1.094,-1.094 -2.188,-2.188 -2.188,-5.469 l -4.01,-111.219 h 31.723 v 26.625 l 0.002,0 z"
   clip-rule="evenodd" /><path
   style="fill:#007dc5;fill-rule:evenodd"
   inkscape:connector-curvature="0"
   id="path3073"
   d="m 210.247,379.272 c -1.094,0 -1.822,0 -4.012,0 -2.916,-1.82 -14.221,-10.938 -14.221,-10.938 0,0 0,0 -1.092,0 0,0 0,-1.094 -1.096,-1.094 0,-1.094 -1.094,-3.281 1.096,-5.109 2.916,-4.008 9.115,-13.492 10.209,-14.219 1.094,-1.094 2.188,-2.188 4.012,0 3.281,0.727 17.502,10.211 17.502,10.211 0,0 0,0.727 1.094,1.82 0,1.094 0,2.188 0,3.281 -2.188,2.922 -12.398,15.32 -12.398,15.32 l 0,0 -1.094,0.728 0,0 z"
   clip-rule="evenodd" /><path
   style="fill:#007dc5;fill-rule:evenodd"
   inkscape:connector-curvature="0"
   id="path3075"
   d="m 218.633,391.67 c 0,0 0,0 0.73,0 0,1.094 0,2.188 0,2.188 0,1.82 -0.73,95.898 -0.73,95.898 0,0 0,6.203 -4.375,7.297 -4.012,0.727 -14.221,1.82 -18.232,-1.094 v -1.094 c -1.094,0 -1.094,-1.094 -2.188,-1.094 -0.73,-1.094 -1.824,-2.922 -1.824,-4.016 l -2.188,-103.188 h 16.408 l 12.399,5.103 0,0 z"
   clip-rule="evenodd" /><path
   style="fill:#007dc5;fill-rule:evenodd"
   inkscape:connector-curvature="0"
   id="path3077"
   d="m 465.864,120.01 c 2.914,-1.094 5.832,-2.188 5.832,-6.199 0,-5.104 -4.008,-6.199 -8.02,-6.199 h -6.199 v 20.42 h 2.188 v -8.021 h 4.012 l 5.102,8.021 h 4.012 l -6.927,-8.022 0,0 z m -6.199,-2.187 V 109.8 h 2.918 c 4.008,0 6.195,1.096 6.195,4.012 0,2.918 -2.188,4.012 -5.102,4.012 h -4.011 l 0,-0.001 z"
   clip-rule="evenodd" /><path
   id="path3079"
   style="fill:#007dc5;fill-rule:evenodd"
   d="m 200.39224,236.21259 c 0,-2.916 0,-8.021 -1.822,-10.209 -1.096,0 -7.293,-1.822 -13.492,12.398 -6.928,15.316 -7.69503,23.86215 -7.69503,23.86215 0,0 3.68303,0.56785 4.77703,-0.52615 0,0 11.305,-4.012 16.41,-19.326 0,0 1.094,-2.916 1.822,-6.199 z m -24.45379,36.87171 c -0.97198,9.45697 0.29139,18.47435 1.88193,23.21631 3.6911,6.49537 14.92144,5.38071 17.42076,-1.60095 3.7748,-5.62836 7.83985,-12.21731 14.89428,-13.92593 8.17753,-0.45891 14.62288,9.64456 10.69795,16.85243 -5.57329,19.57884 -29.68544,31.98931 -48.58664,23.59092 -14.6309,-7.86552 -22.99671,-25.34452 -20.84696,-41.68933 0.17965,-23.29163 5.54447,-47.86403 21.33887,-65.73863 9.43306,-9.31831 26.1136,-12.10193 36.80327,-3.34185 9.51351,8.57536 10.59079,23.43057 5.48668,34.6385 -5.10473,15.03921 -22.63975,27.18009 -39.09014,27.99853 z"
   inkscape:connector-curvature="0"
   sodipodi:nodetypes="ccccccccccccccccccc" /><path
   style="fill:#007dc5;fill-rule:evenodd"
   inkscape:connector-curvature="0"
   id="path3085"
   d="m 313.49508,183.77114 c 0,0 0,0 0,1.094 1.094,0 1.094,1.094 1.094,1.094 0,1.824 -2.188,92.984 -2.188,92.984 0,0 0,0.727 -0.729,2.914 0,1.094 -1.096,2.922 -2.188,2.922 -4.012,1.094 -15.316,2.188 -18.598,-0.734 l 0,0 c 0,0 0,0 -0.729,-1.094 0,0 0,0 -1.096,0 0,-1.094 -1.092,-2.188 -1.092,-4.008 l -2.915,-99.184 16.043,-1.094 12.398,5.106 0,0 z"
   clip-rule="evenodd" /><path
   style="fill:#007dc5;fill-rule:evenodd"
   inkscape:connector-curvature="0"
   id="path3087"
   d="m 299.27508,167.36114 0,0 c 0,1.096 0,1.096 -1.094,1.096 -1.094,0 -2.189,0 -2.918,-1.096 -2.188,-1.822 -13.492,-14.221 -15.314,-16.408 v -0.73 c 0,-1.094 0,-2.186 0.729,-2.186 1.094,-1.096 13.492,-12.4 13.492,-12.4 1.094,0 1.094,0 1.094,0 0,0 0,-0.729 0.729,-0.729 1.096,0 2.189,0 4.377,0.729 0.729,2.188 2.918,4.377 5.834,6.199 2.188,2.189 5.471,5.105 7.293,8.387 0,0.73 0,0.73 1.094,1.824 0,0 0,1.094 -1.094,2.188 -1.094,0 -4.01,4.012 -7.293,6.928 -4.011,3.281 -6.929,6.198 -6.929,6.198 l 0,0 0,0 z"
   clip-rule="evenodd" /><path
   style="fill:#007dc5;fill-rule:evenodd"
   inkscape:connector-curvature="0"
   id="path3089"
   d="m 394.028,287.383 h 1.094 c 0,0 0,0 1.094,0 1.094,-1.096 2.188,-1.096 4.012,1.092 1.094,0 2.188,1.094 3.281,2.189 0.73,0.729 2.918,1.822 4.012,2.916 2.918,2.189 6.199,4.012 8.02,7.293 v 0.727 c 0,0 1.098,0 1.098,1.094 0,0 0,1.094 -1.098,2.195 -1.09,0 -4.008,4.008 -6.926,8.016 -2.188,3.281 -5.105,6.203 -5.105,6.203 0,1.094 -3.281,2.188 -5.105,0 -2.188,-1.828 -14.586,-11.305 -15.316,-12.398 -1.09,0 -1.09,-0.734 -1.09,-1.82 0,0 0,-1.102 1.09,-2.195 0.73,0 4.012,-4.008 5.836,-8.02 3.279,-3.282 5.103,-6.2 5.103,-7.292 l 0,0 z"
   clip-rule="evenodd" /><path
   style="fill:#007dc5;fill-rule:evenodd"
   inkscape:connector-curvature="0"
   id="path3091"
   d="m 221.90624,138.12459 c 0,-4.012 0,-6.199 5.105,-6.928 4.012,-2.189 18.598,-2.189 28.809,0.729 0,0 2.914,2.188 2.914,8.387 0,6.928 -1.094,168.465 -1.094,168.465 0,0 -1.82,7.293 -5.102,8.023 -1.824,2.188 -11.305,3.281 -14.223,1.094 0,0 -5.105,-1.094 -5.105,-8.021 0,-6.2 -11.304,-171.749 -11.304,-171.749 l 0,0 z"
   clip-rule="evenodd" />
<path
   clip-rule="evenodd"
   d="m 372.03362,122.66609 c 0,0 0,-1.096 0,-2.189 1.094,-1.094 2.914,-2.918 6.195,-4.01 6.93,-1.094 14.223,-2.189 20.4225,2.0055 6.1995,4.1945 6.1995,6.0165 5.1055,9.2975 0,5.834 -4.012,123.1747 -4.012,123.1747 l 0,0 0,1.094 c -1.094,1.094 -2.188,1.094 -4.375,1.828 -2.918,1.086 -12.035,-0.734 -14.223,-1.828 l 0,0 c -1.094,-1.094 -1.094,-1.094 -1.094,-1.094 -0.727,-1.094 -1.824,-2.188 -1.824,-2.914 l 0,-22.609 c 0,0 0,0 0,-1.094 l 0,-1.094 c -1.094,-0.734 -3.281,-0.734 -5.102,2.188 0,0 -2.188,4.008 -5.105,8.023 -3.281,5.102 -6.199,10.211 -8.387,12.398 0,0 -7.62959,6.47427 -16.043,2.914 -8.62998,-3.65191 -13.92213,-21.69991 -14.586,-28.438 -2.918,-24.438 1.094,-60.172 14.403,-72.3865 13.309,-12.2145 20.602,-16.5895 29.719,-17.6835 0,0 1.094,0 1.094,-0.734 l -2.188,-6.1197 c 0,0 0,0 0,-0.729 z m -0.59704,32.86667 c -14.48466,15.97663 -17.14344,36.46619 -17.63696,50.56003 0,1.094 0,2.922 0,6.203 0,2.914 0,6.922 0.73,8.023 10.33172,-3.39943 19.58769,-14.07547 19.691,-26.624 l 0,-34.641 c 0,0 0,0 0,-1.094 -0.5518,-1.48082 -1.3827,-2.27645 -2.78404,-2.42703 z"
   id="path3115"
   inkscape:connector-curvature="0"
   style="fill:#007dc5;fill-rule:evenodd"
   sodipodi:nodetypes="ccccccccccccscsccccsccsccccccccccc" /><path
   style="fill:#007dc5;fill-rule:evenodd"
   d="m 93.353398,307.30955 c 0.04702,8.63139 -0.597063,17.39037 0.647,25.93599 4.470783,10.28101 15.156122,1.10198 19.717012,-4.27965 3.43558,-6.42127 9.02684,-14.51498 17.51021,-10.18931 6.78443,2.35692 9.07872,10.50166 5.78802,16.55636 -4.1698,5.21229 -6.16005,12.02492 -11.44807,16.44384 -8.62117,8.72148 -21.73622,10.44215 -33.326058,8.24574 -8.473132,-1.26208 -13.689745,-9.34668 -18.310378,-15.81071 -9.325002,-16.1493 -8.401266,-35.90044 -4.152543,-53.44553 3.316065,-13.78719 7.46771,-28.62786 18.222016,-38.55684 3.695562,-5.00383 9.432112,-8.53488 15.643363,-9.63934 10.96858,-2.12479 22.82127,2.62118 28.73782,12.20797 9.15154,12.17356 5.0633,31.30622 -8.04695,38.88724 -4.6863,3.16348 -16.76387,5.62453 -13.46382,-3.95277 4.57223,-7.19542 8.28191,-18.59267 3.20463,-26.08417 -6.93748,-1.11364 -10.36574,6.70406 -13.31568,11.65884 -4.555165,8.69562 -6.594203,18.45133 -6.89517,28.20578 -0.123552,1.27851 -0.362524,2.54155 -0.511402,3.81656 z"
   id="path3117"
   inkscape:connector-curvature="0" /><path
   sodipodi:nodetypes="ccccccccccccccccccc"
   inkscape:connector-curvature="0"
   d="m 551.68267,302.68243 c 0,-2.916 0,-8.021 -1.822,-10.209 -1.096,0 -7.293,-1.822 -13.492,12.398 -6.928,15.316 -7.69503,23.86215 -7.69503,23.86215 0,0 3.68303,0.56785 4.77703,-0.52615 0,0 11.305,-4.012 16.41,-19.326 0,0 1.094,-2.916 1.822,-6.199 z m -24.45379,36.87171 c -0.97198,9.45697 0.29139,18.47435 1.88193,23.21631 3.6911,6.49537 14.92144,5.38071 17.42076,-1.60095 3.7748,-5.62836 7.83985,-12.21731 14.89428,-13.92593 8.17753,-0.45891 14.62288,9.64456 10.69795,16.85243 -5.57329,19.57884 -29.68544,31.98931 -48.58664,23.59092 -14.6309,-7.86552 -22.99671,-25.34452 -20.84696,-41.68933 0.17965,-23.29163 5.54447,-47.86403 21.33887,-65.73863 9.43306,-9.31831 26.1136,-12.10193 36.80327,-3.34185 9.51351,8.57536 10.59079,23.43057 5.48668,34.6385 -5.10473,15.03921 -22.63975,27.18009 -39.09014,27.99853 z"
   style="fill:#007dc5;fill-rule:evenodd;fill-opacity:1"
   id="path3083" /></svg>