<?xml version="1.0" encoding="UTF-8" standalone="no"?>
<!-- Created with Inkscape (http://www.inkscape.org/) -->

<svg
   xmlns:dc="http://purl.org/dc/elements/1.1/"
   xmlns:cc="http://creativecommons.org/ns#"
   xmlns:rdf="http://www.w3.org/1999/02/22-rdf-syntax-ns#"
   xmlns:svg="http://www.w3.org/2000/svg"
   xmlns="http://www.w3.org/2000/svg"
   xmlns:sodipodi="http://sodipodi.sourceforge.net/DTD/sodipodi-0.dtd"
   xmlns:inkscape="http://www.inkscape.org/namespaces/inkscape"
   id="svg2"
   sodipodi:docname="pitr-Kitty-icon.svg"
   inkscape:export-filename="C:\joanna\Gfx\drawings_vector\pitr_icons\pitr_chicken.png"
   viewBox="0 0 128 128"
   sodipodi:version="0.32"
   inkscape:export-xdpi="90"
   version="1.0"
   inkscape:output_extension="org.inkscape.output.svg.inkscape"
   inkscape:export-ydpi="90"
   inkscape:version="0.48.5 r10040"
   width="100%"
   height="100%">
  <defs
     id="defs18" />
  <sodipodi:namedview
     id="base"
     inkscape:zoom="2.9775824"
     borderopacity="1.0"
     inkscape:current-layer="layer2"
     inkscape:cx="33.643628"
     inkscape:cy="63.191642"
     showgrid="false"
     inkscape:guide-bbox="true"
     inkscape:snap-global="false"
     showguides="true"
     bordercolor="#666666"
     inkscape:window-x="121"
     guidetolerance="10000"
     objecttolerance="10000"
     inkscape:window-y="75"
     inkscape:window-width="1280"
     inkscape:pageopacity="0.0"
     inkscape:pageshadow="2"
     pagecolor="#ffffff"
     gridtolerance="10000"
     inkscape:document-units="px"
     inkscape:window-height="744"
     showborder="true"
     inkscape:snap-page="true"
     inkscape:window-maximized="0">
    <inkscape:grid
       id="grid2403"
       visible="true"
       type="xygrid"
       enabled="true"
       empspacing="4" />
  </sodipodi:namedview>
  <g
     id="layer2"
     inkscape:label="bg"
     inkscape:groupmode="layer">
    <path
       sodipodi:type="arc"
       style="fill:#000000;stroke:none"
       id="path2997"
       sodipodi:cx="64"
       sodipodi:cy="64"
       sodipodi:rx="64"
       sodipodi:ry="64"
       d="M 128,64 A 64,64 0 1 1 0,64 64,64 0 1 1 128,64 z" />
    <path
       id="path3612"
       style="fill:#ffffff;stroke:none"
       d="m 38.209103,10.689503 2.624537,13.919354 c -2.032282,3.422281 -3.186668,7.331921 -3.186668,11.482552 0,13.457277 12.11031,24.373394 27.04204,24.373394 14.931728,0 27.068397,-10.916117 27.063019,-24.373394 0,-4.02099 -1.102747,-7.810137 -3.017762,-11.154418 l 2.619696,-13.895684 -11.05813,5.131807 c -4.408834,-2.81066 -9.799384,-4.476075 -15.606823,-4.476075 -5.637995,0 -10.873083,1.55514 -15.208224,4.21841 L 38.209103,10.689503 z"
       inkscape:connector-curvature="0" />
    <path
       style="fill:#ffffff;stroke:none"
       d="m 14.889449,31.720748 c 4.64157,-5.511293 9.81702,-9.679214 13.81702,-9.679214 1.451997,0 5.916988,-1.411555 5.56245,3.575048 -0.622154,8.750625 -5.327787,20.683309 -3.883235,25.570287 1.786906,6.045173 10.461201,2.941097 10.461201,2.941097 l 4,4 c 0,0 -13.938446,8.930849 -19.972494,-0.788233 -6.763747,-10.894412 4.53388,-26.458592 0.365958,-27.969885 -3.760422,-1.363534 -10.3509,2.3509 -10.3509,2.3509 z"
       id="path2999"
       inkscape:connector-curvature="0"
       sodipodi:nodetypes="csssccssc" />
    <path
       style="fill:#ffffff;stroke:none"
       d="m 47.20763,59.529841 c 2.505756,2.312612 5.82851,3.022586 5.82851,3.022586 0,0 -6.833425,15.065893 -11.657019,14.663926 -4.823595,-0.401965 -16.882581,-6.431458 -21.304209,-1.808847 -4.421629,4.622611 -1.218315,10.669174 0.602949,15.676681 1.321401,3.633148 5.22556,1.607865 6.632442,0.200984 1.852973,-1.852971 3.818679,-8.441291 3.818679,-8.441291 0,0 1.607865,11.255054 -5.22556,17.083564 -2.969068,2.532436 -7.235392,3.014746 -12.25997,-4.220645 C 8.6188756,88.471407 6.4080609,73.397675 9.6237905,69.378013 12.83952,65.358351 28.315219,64.554419 31.128982,65.760318 c 2.813763,1.205898 7.31549,4.542513 10.049156,1.808848 3.416712,-3.416714 6.029492,-8.039325 6.029492,-8.039325 z"
       id="path3001"
       inkscape:connector-curvature="0"
       sodipodi:nodetypes="ccsssscsssssc" />
    <path
       style="fill:#ffffff;stroke:none"
       d="m 55.725497,63.541664 c 4.126686,1.821914 6.915229,0.951858 6.915229,0.951858 0,0 -0.898514,31.303892 -0.757804,38.218148 0.0818,4.01966 -0.534696,12.9131 -3.841289,17.32545 -2.33425,3.11485 -15.493991,2.46655 -22.362438,-7.18768 -6.114104,-8.59394 10.319924,-11.8814 10.319924,-11.8814 0,0 -5.931367,3.31341 -3.734264,8.57092 1.300368,3.11169 5.210554,5.60132 8.818947,4.18588 5.138302,-2.01557 5.391331,-21.559832 5.441311,-32.768998 0.02565,-5.753171 -0.799616,-17.414178 -0.799616,-17.414178 z"
       id="path3003"
       inkscape:connector-curvature="0"
       sodipodi:nodetypes="ccssscsssc" />
  </g>
  <metadata
     id="metadata16">
    <rdf:RDF>
      <cc:Work>
        <dc:format>image/svg+xml</dc:format>
        <dc:type
           rdf:resource="http://purl.org/dc/dcmitype/StillImage" />
        <cc:license
           rdf:resource="http://creativecommons.org/licenses/publicdomain/" />
        <dc:publisher>
          <cc:Agent
             rdf:about="http://openclipart.org/">
            <dc:title>Openclipart</dc:title>
          </cc:Agent>
        </dc:publisher>
        <dc:title></dc:title>
        <dc:date>2009-04-02T20:10:14</dc:date>
        <dc:description />
        <dc:source>https://openclipart.org/detail/23817/kitty-icon-by-pitr-23817</dc:source>
        <dc:creator>
          <cc:Agent>
            <dc:title>pitr</dc:title>
          </cc:Agent>
        </dc:creator>
        <dc:subject>
          <rdf:Bag>
            <rdf:li>animal</rdf:li>
            <rdf:li>cat</rdf:li>
            <rdf:li>contour</rdf:li>
            <rdf:li>grey</rdf:li>
            <rdf:li>head</rdf:li>
            <rdf:li>icon</rdf:li>
            <rdf:li>kitty</rdf:li>
          </rdf:Bag>
        </dc:subject>
      </cc:Work>
      <cc:License
         rdf:about="http://creativecommons.org/licenses/publicdomain/">
        <cc:permits
           rdf:resource="http://creativecommons.org/ns#Reproduction" />
        <cc:permits
           rdf:resource="http://creativecommons.org/ns#Distribution" />
        <cc:permits
           rdf:resource="http://creativecommons.org/ns#DerivativeWorks" />
      </cc:License>
    </rdf:RDF>
  </metadata>
</svg>
