<?xml version="1.0" encoding="UTF-8" standalone="no"?>
<!-- Created with Inkscape (http://www.inkscape.org/) -->

<svg
   xmlns:dc="http://purl.org/dc/elements/1.1/"
   xmlns:cc="http://creativecommons.org/ns#"
   xmlns:rdf="http://www.w3.org/1999/02/22-rdf-syntax-ns#"
   xmlns:svg="http://www.w3.org/2000/svg"
   xmlns="http://www.w3.org/2000/svg"
   xmlns:xlink="http://www.w3.org/1999/xlink"
   xmlns:sodipodi="http://sodipodi.sourceforge.net/DTD/sodipodi-0.dtd"
   xmlns:inkscape="http://www.inkscape.org/namespaces/inkscape"
   width="300"
   height="322"
   viewBox="0 0 300 322.00001"
   id="svg2"
   version="1.1"
   inkscape:version="0.91 r13725"
   sodipodi:docname="security-sauce.svg">
  <defs
     id="defs4">
    <marker
       inkscape:stockid="DiamondL"
       orient="auto"
       refY="0"
       refX="0"
       id="marker5214"
       style="overflow:visible"
       inkscape:isstock="true">
      <path
         id="path5216"
         d="M 0,-7.0710768 -7.0710894,0 0,7.0710589 7.0710462,0 0,-7.0710768 Z"
         style="fill:#ff0000;fill-opacity:1;fill-rule:evenodd;stroke:none;stroke-width:1pt;stroke-opacity:1"
         transform="scale(0.8,0.8)"
         inkscape:connector-curvature="0" />
    </marker>
    <marker
       inkscape:stockid="DiamondL"
       orient="auto"
       refY="0"
       refX="0"
       id="marker5186"
       style="overflow:visible"
       inkscape:isstock="true">
      <path
         id="path5188"
         d="M 0,-7.0710768 -7.0710894,0 0,7.0710589 7.0710462,0 0,-7.0710768 Z"
         style="fill:#ff0000;fill-opacity:1;fill-rule:evenodd;stroke:none;stroke-width:1pt;stroke-opacity:1"
         transform="scale(0.8,0.8)"
         inkscape:connector-curvature="0" />
    </marker>
    <marker
       inkscape:stockid="DiamondL"
       orient="auto"
       refY="0"
       refX="0"
       id="DiamondL"
       style="overflow:visible"
       inkscape:isstock="true">
      <path
         id="path4296"
         d="M 0,-7.0710768 -7.0710894,0 0,7.0710589 7.0710462,0 0,-7.0710768 Z"
         style="fill:#ff0000;fill-opacity:1;fill-rule:evenodd;stroke:none;stroke-width:1pt;stroke-opacity:1"
         transform="scale(0.8,0.8)"
         inkscape:connector-curvature="0" />
    </marker>
    <inkscape:path-effect
       effect="bend_path"
       id="path-effect4209"
       is_visible="true"
       bendpath="m 20,678.14365 c 59.557922,-59.18796 199.54875,-60.79046 260,0"
       prop_scale="1"
       scale_y_rel="false"
       vertical="false"
       bendpath-nodetypes="cc" />
  </defs>
  <sodipodi:namedview
     id="base"
     pagecolor="#560000"
     bordercolor="#666666"
     borderopacity="1.0"
     inkscape:pageopacity="0"
     inkscape:pageshadow="2"
     inkscape:zoom="1.4"
     inkscape:cx="138.73671"
     inkscape:cy="182.40359"
     inkscape:document-units="px"
     inkscape:current-layer="layer1"
     showgrid="false"
     units="px"
     inkscape:snap-bbox="false"
     inkscape:object-nodes="true"
     inkscape:window-width="1680"
     inkscape:window-height="987"
     inkscape:window-x="-8"
     inkscape:window-y="-8"
     inkscape:window-maximized="1"
     inkscape:snap-others="false"
     inkscape:snap-nodes="false"
     fit-margin-top="0"
     fit-margin-left="0"
     fit-margin-right="0"
     fit-margin-bottom="0">
    <inkscape:grid
       type="xygrid"
       id="grid4136"
       originx="0"
       originy="-4.0000001e-005" />
  </sodipodi:namedview>
  <metadata
     id="metadata7">
    <rdf:RDF>
      <cc:Work
         rdf:about="">
        <dc:format>image/svg+xml</dc:format>
        <dc:type
           rdf:resource="http://purl.org/dc/dcmitype/StillImage" />
        <dc:title></dc:title>
      </cc:Work>
    </rdf:RDF>
  </metadata>
  <g
     inkscape:label="Layer 1"
     inkscape:groupmode="layer"
     id="layer1"
     transform="translate(0,-730.36211)">
    <path
       style="fill:#ffffff;fill-rule:evenodd;stroke:none;stroke-width:1px;stroke-linecap:butt;stroke-linejoin:miter;stroke-opacity:1"
       d="m 0,982.36214 c 0,34.99996 35,69.99996 70,69.99996 l 160,0 c 35,0 70,-35 70,-64.99996 l 0,-137 c 0,-60 -75,-120 -150,-120 -75,0 -150,60 -150,120 z"
       id="path4140"
       inkscape:connector-curvature="0"
       sodipodi:nodetypes="cccccccc" />
    <path
       sodipodi:nodetypes="cccccccc"
       inkscape:connector-curvature="0"
       id="path4142"
       d="m 10,975.0288 c 0,32.6666 32.666667,65.3333 65.333333,65.3333 l 149.333337,0 c 32.66666,0 65.33333,-32.6667 65.33333,-60.66663 l 0,-125.33333 c 0,-56 -70,-112 -140,-112 -70,0 -140,56 -140,112 z"
       style="fill:none;fill-rule:evenodd;stroke:#ff0000;stroke-width:0.99999994px;stroke-linecap:butt;stroke-linejoin:miter;stroke-opacity:1" />
    <path
       style="fill:none;fill-rule:evenodd;stroke:#000080;stroke-width:1.5;stroke-linecap:butt;stroke-linejoin:miter;stroke-miterlimit:4;stroke-dasharray:none;stroke-opacity:1"
       d="m 45,850.47992 c 0,0 37.899254,-27.9139 105.06637,-27.9139 67.16712,0 99.93363,27.9139 99.93363,27.9139"
       id="path4144"
       inkscape:connector-curvature="0"
       sodipodi:nodetypes="czc" />
    <g
       id="g4192"
       transform="matrix(0.97913896,0.01120836,-0.01120836,0.97913896,10.513771,184.2765)"
       inkscape:path-effect="#path-effect4209"
       style="fill:#000080">
      <path
         d="m 21.252694,657.80979 c 0.118029,0.59156 -0.06323,0.96135 -0.566279,1.36416 -0.932416,0.74663 -2.801038,1.17177 -4.348104,2.50215 -4.067248,3.49758 -3.657341,8.24515 -0.02123,11.94026 1.889827,1.9205 3.894911,2.90965 6.088444,3.11263 1.340456,0.11333 3.195221,-0.50685 6.082828,-1.0301 2.086716,-0.38088 3.39801,-0.0467 4.847224,1.71248 1.739196,2.11125 1.962295,4.69886 0.430953,6.05736 -2.065297,1.83218 -6.15383,0.8989 -10.843251,-2.92838 -0.08042,0.10076 -0.16064,0.20165 -0.240661,0.30268 2.954992,2.72209 5.895435,5.45769 8.821378,8.20668 -0.124126,-0.57499 -0.01713,-0.99725 0.285872,-1.29295 0.5937,-0.57939 2.576663,-0.99579 4.208639,-2.4319 3.128586,-2.7531 2.804677,-8.22374 -0.724549,-12.87257 -1.976274,-2.60322 -4.142184,-3.95356 -6.922618,-4.20671 -1.086645,-0.0926 -2.783847,0.31902 -5.283088,0.88357 -2.160495,0.49817 -3.555946,0.50861 -4.792294,-0.85871 -1.231908,-1.36242 -1.244255,-3.35333 0.220813,-4.60791 2.066708,-1.76977 5.433533,-1.0035 8.921265,2.35015 0.099,-0.0781 0.198116,-0.156 0.297339,-0.23378 -2.150906,-2.659 -4.305116,-5.31535 -6.462634,-7.96905 0,0 -4.3e-5,-6e-5 -4.3e-5,-6e-5 z"
         style="font-style:normal;font-variant:normal;font-weight:bold;font-stretch:condensed;font-size:medium;line-height:125%;font-family:'ITC Benguiat Condensed';-inkscape-font-specification:'ITC Benguiat Condensed, Bold Condensed';text-align:start;letter-spacing:0px;word-spacing:3.02003455px;writing-mode:lr-tb;text-anchor:start;fill:#000080;fill-opacity:1;stroke:none;stroke-width:1px;stroke-linecap:butt;stroke-linejoin:miter;stroke-opacity:1"
         id="path4145"
         inkscape:connector-curvature="0"
         inkscape:original-d="m 23.018959,652.03156 c -0.241603,0.53921 -0.573807,0.71893 -1.147613,0.71893 -1.087213,0 -2.56703,-0.85374 -4.37905,-0.85374 -4.620653,0 -7.368885,3.59473 -7.368885,8.80709 0,2.69606 0.694608,4.80796 2.144225,6.47052 0.87581,0.98856 2.687831,1.84231 5.25486,3.32513 1.872422,1.07843 2.718031,2.15685 2.718031,4.44849 0,2.74099 -1.600618,4.89783 -3.926045,4.89783 -3.171036,0 -5.677665,-3.5498 -6.342072,-9.57098 l -0.392605,0.045 0.543606,12.04236 c 0.362404,-0.49427 0.785209,-0.71895 1.268415,-0.71895 1.026812,0 2.838832,1.07842 5.436062,1.07842 4.952857,0 8.244695,-4.62822 8.244695,-10.46965 0,-3.2802 -0.936211,-5.66171 -2.899234,-7.59388 -0.785209,-0.76389 -2.295226,-1.48283 -4.469651,-2.69606 -1.872421,-1.03349 -2.838832,-1.9771 -2.838832,-3.81939 0,-1.8423 1.208013,-3.32513 2.929433,-3.32513 2.416028,0 4.37905,2.69604 5.013258,7.504 l 0.362404,0 -0.151002,-10.28992 z" />
      <path
         d="m 24.301156,655.88966 0.646849,0.86836 c 1.01552,-0.66158 1.529585,-0.0208 2.670171,1.15317 4.411742,4.6165 8.734666,9.30916 12.970098,14.07414 0.291002,0.31566 0.536228,0.61666 0.691484,0.8384 0.333012,0.47562 0.303859,0.77799 -0.01733,1.05184 l 0.625826,0.88412 c 1.575499,-1.11094 3.183778,-2.18591 4.821759,-3.2261 l -0.583875,-0.91388 c -0.306187,0.14874 -0.640771,-0.004 -0.934617,-0.46004 -0.103554,-0.16058 -0.355478,-0.60318 -0.718489,-1.37948 -2.388164,-4.97046 -4.70156,-9.9856 -6.9414,-15.04269 3.439642,4.36942 6.823925,8.78031 10.153495,13.23083 0.389094,0.53269 0.591361,0.86788 0.690544,1.03214 0.320676,0.53108 0.354232,0.91716 0.05606,1.1884 l 0.564929,0.92656 c 1.720767,-1.04229 3.471752,-2.04801 5.249553,-3.01852 l -0.523452,-0.9525 c -0.243656,0.0888 -0.455793,0.1171 -0.649879,0.003 -0.237898,-0.13472 -0.401295,-0.31028 -0.571223,-0.6155 -0.170151,-0.30562 -0.308178,-0.67164 -0.446249,-1.03937 -2.185185,-5.85796 -4.25982,-11.7716 -6.22651,-17.73518 -0.584684,-1.7996 -0.600724,-2.76149 0.195082,-3.17593 2e-6,0 0.05888,-0.0307 0.05889,-0.0307 l -0.499757,-0.96615 c -1.511254,0.7866 -3.012566,1.59737 -4.502713,2.43279 l 0.528589,0.94943 c 0.552404,-0.30954 0.972001,-0.0963 1.383027,0.65167 0.130927,0.23824 0.307529,0.6282 0.474803,1.06812 1.72933,4.75092 3.523069,9.47004 5.382329,14.15487 -2.952243,-4.06388 -5.952084,-8.09466 -9.00008,-12.09073 -0.223812,-0.31762 -0.468431,-0.66993 -0.664132,-1.00407 -0.411345,-0.70235 -0.379099,-1.17295 0.111242,-1.45853 5e-6,-10e-6 0.08638,-0.0503 0.08638,-0.0503 l -0.543351,-0.94037 c -2.309706,1.34394 -4.590661,2.74861 -6.838196,4.21584 l 0.590248,0.90951 c 0.04669,-0.0305 0.09339,-0.0609 0.140105,-0.0913 0.505547,-0.3291 0.987685,-0.13092 1.404512,0.52149 0.187896,0.2941 0.375061,0.58719 0.507605,0.91684 2.075457,4.65123 4.2174,9.264 6.426886,13.83596 -3.151575,-3.76439 -6.351609,-7.49052 -9.600643,-11.17681 -0.272336,-0.28336 -0.467753,-0.5703 -0.642285,-0.82671 -0.652657,-0.95883 -0.579919,-1.62199 0.172942,-2.12695 l -0.601674,-0.90153 c -2.063279,1.38441 -4.09703,2.82269 -6.097561,4.31628 z"
         style="font-style:normal;font-variant:normal;font-weight:bold;font-stretch:condensed;font-size:medium;line-height:125%;font-family:'ITC Benguiat Condensed';-inkscape-font-specification:'ITC Benguiat Condensed, Bold Condensed';text-align:start;letter-spacing:0px;word-spacing:3.02003455px;writing-mode:lr-tb;text-anchor:start;fill:#000080;fill-opacity:1;stroke:none;stroke-width:1px;stroke-linecap:butt;stroke-linejoin:miter;stroke-opacity:1"
         id="path4147"
         inkscape:connector-curvature="0"
         inkscape:original-d="m 26.208398,652.36214 0,1.08591 c 1.087212,0.0776 1.117413,0.89199 1.328815,2.52085 l 2.325427,19.04217 c 0.0604,0.42661 0.0906,0.81443 0.0906,1.08591 0,0.58174 -0.211403,0.81443 -0.664408,0.85321 l 0,1.08591 6.281672,0 0,-1.08591 c -0.362404,-0.0388 -0.573806,-0.34904 -0.573806,-0.89199 0,-0.19391 0.0302,-0.69808 0.151001,-1.5513 l 2.144225,-16.44375 1.72142,16.59888 c 0.0604,0.6593 0.0604,1.04713 0.0604,1.24104 0,0.62052 -0.181202,0.96956 -0.604007,1.04712 l 0,1.08591 6.493075,0 0,-1.08591 c -0.271803,-0.0388 -0.483206,-0.11634 -0.604007,-0.31026 -0.151002,-0.23269 -0.211402,-0.46538 -0.211402,-0.81443 0,-0.34904 0.0604,-0.73686 0.120801,-1.12469 l 2.929434,-18.53799 c 0.302004,-1.86156 0.694608,-2.71477 1.510018,-2.71477 0.0302,0 0.0302,0 0.0604,0 l 0,-1.08591 -4.620652,0 0,1.08591 c 0.573806,0 0.815409,0.38782 0.815409,1.24103 0,0.27148 -0.0302,0.69809 -0.0906,1.16348 l -2.144226,14.97001 -1.691219,-14.97001 c -0.0302,-0.38783 -0.0604,-0.81443 -0.0604,-1.20226 0,-0.81443 0.241603,-1.20225 0.755009,-1.20225 0.0302,0 0.0604,0 0.0906,0 l 0,-1.08591 -7.217883,0 0,1.08591 c 0.0604,0 0.0906,0 0.151002,0 0.543606,0 0.815409,0.4266 0.815409,1.20225 0,0.34904 0,0.69809 -0.0604,1.04713 l -2.083824,15.12514 -1.69122,-14.65975 c -0.0604,-0.38783 -0.0604,-0.73687 -0.0604,-1.04713 0,-1.16347 0.392604,-1.66764 1.208013,-1.66764 l 0,-1.08591 -6.674276,0 z" />
      <path
         d="m 55.928261,645.5655 -0.926319,-2.01401 c -0.809593,-1.76023 -1.073844,-2.64258 0.667447,-3.42127 2.68492,-1.20066 5.45683,-0.0604 7.632968,3.08134 0.117407,-0.076 0.234916,-0.15192 0.352528,-0.22768 -1.402696,-2.52294 -2.820011,-5.03909 -4.252056,-7.54812 -0.17545,0.61975 -0.634489,0.97768 -1.397388,1.30114 -3.976362,1.68593 -7.909385,3.52124 -11.778622,5.51395 l 0.495722,0.96839 c 0.952995,-0.40288 1.789768,0.093 2.467755,1.44765 l 8.366438,16.71646 c 0.678689,1.35604 0.646387,2.32473 -0.105372,2.79443 l 0.495718,0.96838 c 3.128555,-1.59225 6.330009,-3.08232 9.586894,-4.47705 1.158248,-0.49602 1.892792,-0.75448 2.472034,-0.32121 -0.632705,-3.21713 -1.229566,-6.44488 -1.791251,-9.68182 -0.108001,0.001 -0.216033,0.002 -0.324094,0.004 0.146016,4.92839 -0.925078,7.89384 -3.299175,8.94861 -1.796692,0.79824 -2.321895,-0.26559 -3.397848,-2.60494 l -4.322822,-9.39873 c 0.248146,-0.11425 0.49655,-0.22791 0.745207,-0.34096 2.043371,-0.92903 3.582112,-0.30514 5.078485,2.09548 0.113247,-0.0485 0.226543,-0.0969 0.339889,-0.14515 -1.400873,-2.68725 -2.81271,-5.36932 -4.23557,-8.04607 -0.118991,0.0513 -0.237936,0.10263 -0.356836,0.15414 0.656316,1.92378 0.273535,2.96998 -1.264553,3.66376 -0.417067,0.18813 -0.833474,0.37795 -1.249191,0.56946 0,0 1.2e-5,3e-5 1.2e-5,3e-5 z"
         style="font-style:normal;font-variant:normal;font-weight:bold;font-stretch:condensed;font-size:medium;line-height:125%;font-family:'ITC Benguiat Condensed';-inkscape-font-specification:'ITC Benguiat Condensed, Bold Condensed';text-align:start;letter-spacing:0px;word-spacing:3.02003455px;writing-mode:lr-tb;text-anchor:start;fill:#000080;fill-opacity:1;stroke:none;stroke-width:1px;stroke-linecap:butt;stroke-linejoin:miter;stroke-opacity:1"
         id="path4149"
         inkscape:connector-curvature="0"
         inkscape:original-d="m 56.158176,659.57567 0,-2.2106 c 0,-1.93912 0.120801,-2.83112 1.872421,-2.83112 2.687831,0 4.650853,2.09426 5.436062,5.81737 l 0.392605,-0.0776 -0.996612,-8.57091 c -0.362404,0.50417 -0.87581,0.6593 -1.630818,0.6593 l -11.808336,0 0,1.08591 c 0.936211,0.0776 1.419417,0.89199 1.419417,2.40451 l 0,18.65434 c 0,1.51252 -0.483206,2.36573 -1.419417,2.4433 l 0,1.0859 11.204329,0 c 1.328815,0 2.144224,0.0388 2.536829,0.65931 l 2.023423,-9.61805 -0.302003,-0.11634 c -1.69122,4.61511 -3.926045,6.94205 -6.644077,6.94205 -2.053623,0 -2.083823,-1.20225 -2.083823,-3.76189 l 0,-10.31613 0.785209,0 c 2.144224,0 3.261637,1.16348 3.684442,3.95581 l 0.362404,0 -0.694608,-9.03631 -0.362404,0 c -0.151002,2.01669 -0.87581,2.83112 -2.476429,2.83112 l -1.298614,0 z" />
      <path
         d="m 73.1789,638.67612 -0.723095,-2.09077 c -0.632348,-1.82839 -0.80815,-2.72736 0.979849,-3.31708 0,0 0.0066,-0.002 0.0066,-0.002 2.746429,-0.91413 5.372036,0.47506 7.240399,3.7907 0.122873,-0.0646 0.245828,-0.12903 0.368864,-0.19337 -1.161235,-2.63213 -2.335545,-5.25955 -3.522975,-7.88217 -0.226914,0.59763 -0.710112,0.9091 -1.488822,1.15585 -1.09814,0.34796 -2.194099,0.70452 -3.28776,1.06977 -2.95558,0.97198 -5.901406,2.01824 -8.829542,3.1419 l 0.392178,1.01558 c 0.980164,-0.29275 1.757025,0.29082 2.291934,1.70832 l 6.601148,17.49291 c 0.535369,1.41872 0.400323,2.38297 -0.405252,2.77884 l 0.392174,1.01558 c 2.548313,-0.98982 5.123461,-1.92562 7.717506,-2.81049 0.781896,-0.26301 1.565635,-0.52094 2.351155,-0.77382 1.208099,-0.38891 1.967366,-0.5804 2.506239,-0.0984 -0.327524,-3.25265 -0.623658,-6.51123 -0.888661,-9.77534 -0.107496,-0.009 -0.215026,-0.017 -0.32259,-0.0254 -0.302576,4.90509 -1.655828,7.75644 -4.136478,8.58748 -0.06472,0.0217 -0.127687,0.0413 -0.188981,0.0589 -1.714526,0.49843 -2.133447,-0.61974 -2.943706,-2.96254 l -3.374442,-9.75694 c 0.256724,-0.0883 0.513572,-0.17606 0.770538,-0.26326 0.392197,-0.1331 0.762779,-0.21482 1.113914,-0.24347 0,0 10e-7,0 10e-7,0 1.535179,-0.12743 2.692181,0.75731 3.71887,2.8125 0.116849,-0.0375 0.233729,-0.0749 0.350642,-0.1122 -1.13947,-2.79745 -2.28866,-5.59153 -3.447595,-8.38217 -0.121931,0.0393 -0.243833,0.0787 -0.365705,0.11817 0.409663,1.7125 0.104324,2.69591 -1.024002,3.27329 0,0 0,0 0,0 -0.169046,0.086 -0.356635,0.16305 -0.56328,0.23236 -0.430022,0.14423 -0.859752,0.29 -1.289163,0.43732 z"
         style="font-style:normal;font-variant:normal;font-weight:bold;font-stretch:condensed;font-size:medium;line-height:125%;font-family:'ITC Benguiat Condensed';-inkscape-font-specification:'ITC Benguiat Condensed, Bold Condensed';text-align:start;letter-spacing:0px;word-spacing:3.02003455px;writing-mode:lr-tb;text-anchor:start;fill:#000080;fill-opacity:1;stroke:none;stroke-width:1px;stroke-linecap:butt;stroke-linejoin:miter;stroke-opacity:1"
         id="path4151"
         inkscape:connector-curvature="0"
         inkscape:original-d="m 73.794704,659.57567 0,-2.2106 c 0,-1.93912 0.120801,-2.83112 1.872421,-2.83112 2.687831,0 4.650853,2.09426 5.436062,5.81737 l 0.392605,-0.0776 -0.996612,-8.57091 c -0.362404,0.50417 -0.87581,0.6593 -1.630818,0.6593 l -11.808336,0 0,1.08591 c 0.936211,0.0776 1.419417,0.89199 1.419417,2.40451 l 0,18.65434 c 0,1.51252 -0.483206,2.36573 -1.419417,2.4433 l 0,1.0859 11.204329,0 c 1.328815,0 2.144224,0.0388 2.536829,0.65931 l 2.023423,-9.61805 -0.302003,-0.11634 c -1.69122,4.61511 -3.926045,6.94205 -6.644077,6.94205 -2.053623,0 -2.083823,-1.20225 -2.083823,-3.76189 l 0,-10.31613 0.785209,0 c 2.144224,0 3.261637,1.16348 3.684442,3.95581 l 0.362404,0 -0.694608,-9.03631 -0.362404,0 c -0.151002,2.01669 -0.87581,2.83112 -2.476429,2.83112 l -1.298614,0 z" />
      <path
         d="m 81.78481,627.7955 c 0.411245,2.77221 0.835915,5.54157 1.274062,8.30799 0.121733,0.005 0.24343,0.01 0.36509,0.0146 -0.189155,-3.57695 0.961454,-5.88972 3.372317,-6.65286 l 5.090067,19.10164 c 0.389369,1.46119 0.156105,2.40407 -0.68984,2.71588 l 0.286536,1.04682 c 2.499478,-0.68454 5.014309,-1.32056 7.542545,-1.90911 l -0.246351,-1.05705 c -0.893899,0.12869 -1.510464,-0.55867 -1.872254,-2.06693 l -4.611196,-19.22353 c 2.480385,-0.47539 4.558497,1.01836 6.095745,4.25323 0.104421,-0.0623 0.208918,-0.12459 0.313489,-0.18677 -0.93302,-2.64105 -1.878622,-5.27846 -2.836852,-7.91211 -0.257155,0.65239 -0.691765,0.78836 -1.326652,0.93262 -3.732509,0.8481 -7.448066,1.78813 -11.142264,2.82247 -0.628306,0.17591 -1.087115,0.22648 -1.614442,-0.18692 z"
         style="font-style:normal;font-variant:normal;font-weight:bold;font-stretch:condensed;font-size:medium;line-height:125%;font-family:'ITC Benguiat Condensed';-inkscape-font-specification:'ITC Benguiat Condensed, Bold Condensed';text-align:start;letter-spacing:0px;word-spacing:3.02003455px;writing-mode:lr-tb;text-anchor:start;fill:#000080;fill-opacity:1;stroke:none;stroke-width:1px;stroke-linecap:butt;stroke-linejoin:miter;stroke-opacity:1"
         id="path4153"
         inkscape:connector-curvature="0"
         inkscape:original-d="m 84.575761,651.7804 -1.026812,8.33822 0.332204,0.11635 c 0.785209,-3.49042 2.416027,-5.39076 4.771654,-5.50711 l 0,19.77904 c 0,1.51252 -0.483205,2.36573 -1.419416,2.44329 l 0,1.08591 8.123889,0 0,-1.08591 c -0.93621,-0.0776 -1.38921,-0.89199 -1.38921,-2.44329 l 0,-19.77904 c 2.35563,0.11635 3.95624,2.01669 4.74145,5.50711 l 0.33221,-0.11635 -1.02682,-8.33822 c -0.3624,0.58174 -0.7852,0.62052 -1.38921,0.62052 l -10.660723,0 c -0.604007,0 -1.026812,-0.0776 -1.389216,-0.62052 z" />
      <path
         d="m 124.47076,629.82942 c 2.46472,-2.24423 3.70095,-4.24426 3.51292,-6.41457 -0.2203,-2.54264 -1.93425,-3.31663 -5.32621,-2.95412 -3.96198,0.42344 -7.91744,0.94093 -11.86132,1.55518 l 0.16652,1.07321 c 1.00377,-0.0776 1.63235,0.65405 1.85496,2.14982 l 2.7466,18.45454 c 0.22277,1.49679 -0.11702,2.40828 -0.99749,2.62277 l 0.16653,1.07321 c 3.10151,-0.47961 6.21667,-0.89346 9.34207,-1.24335 4.77266,-0.53432 6.97075,-2.71796 6.57451,-7.61111 -0.30358,-3.74892 -2.3731,-6.86822 -6.17909,-8.70558 z m -4.94776,3.65096 c 0.95546,-0.55019 1.92739,-1.25198 2.92009,-2.14451 1.39665,1.29138 2.31238,3.33801 2.54561,5.57904 0.426,4.09335 -0.64101,6.537 -2.70007,6.78126 -1.22582,0.14542 -1.58198,-0.78226 -1.85273,-2.94005 z m -0.31397,-2.50223 -0.63758,-5.08147 c -0.2411,-1.92153 0.16068,-2.56741 1.85307,-2.76535 1.50193,-0.17566 2.37928,0.5154 2.5364,1.97993 0.21135,1.96991 -1.10335,4.28606 -3.75189,5.86689 z"
         style="font-style:normal;font-variant:normal;font-weight:bold;font-stretch:condensed;font-size:medium;line-height:125%;font-family:'ITC Benguiat Condensed';-inkscape-font-specification:'ITC Benguiat Condensed, Bold Condensed';text-align:start;letter-spacing:0px;word-spacing:3.02003455px;writing-mode:lr-tb;text-anchor:start;fill:#000080;fill-opacity:1;stroke:none;stroke-width:1px;stroke-linecap:butt;stroke-linejoin:miter;stroke-opacity:1"
         id="path4155"
         inkscape:connector-curvature="0"
         inkscape:original-d="m 123.94757,661.86383 c 2.59723,-1.9779 3.92604,-3.87824 3.92604,-6.05006 0,-2.55964 -1.54021,-3.45163 -4.71125,-3.45163 l -11.14393,0 0,1.08591 c 0.93621,0.0776 1.41942,0.89199 1.41942,2.40451 l 0,18.65434 c 0,1.51252 -0.48321,2.36573 -1.41942,2.44329 l 0,1.08591 9.78491,0 c 5.01326,0 7.42929,-2.05547 7.42929,-6.94205 0,-3.7619 -1.81202,-7.01962 -5.28506,-9.23022 z m -5.19446,3.06381 c 0.99661,-0.4266 2.02342,-1.00834 3.08043,-1.78399 1.20802,1.43495 1.90263,3.56799 1.90263,5.81737 0,4.11093 -1.32882,6.43788 -3.47304,6.43788 -1.26842,0 -1.51002,-0.96956 -1.51002,-3.14138 l 0,-7.32988 z m 0,-2.52085 0,-5.11928 c 0,-1.93912 0.453,-2.52086 2.05362,-2.52086 1.41942,0 2.17443,0.77565 2.17443,2.24938 0,1.9779 -1.47982,4.14972 -4.22805,5.39076 z" />
      <path
         d="m 135.15614,619.43474 0.0627,1.08479 c 0.41829,-0.0241 0.69219,0.27204 0.72001,0.77567 0.015,0.27169 -0.0834,0.82028 -0.22639,1.68389 -1.01391,5.61531 -1.94284,11.23641 -2.78522,16.86087 -0.43062,2.75639 -0.66115,4.28782 -1.73051,4.5299 l 0.0874,1.0831 c 1.72457,-0.13892 3.45145,-0.25897 5.18006,-0.36044 l -0.0635,-1.08475 c -0.76447,-0.0328 -1.17549,-0.4722 -1.23931,-1.47952 -0.0418,-0.65923 0.037,-1.28477 0.12202,-1.83526 0.28391,-1.97485 0.57772,-3.94928 0.88139,-5.92319 3.66442,-0.053 6.22996,3.25723 6.35739,7.13119 0.0408,1.24126 -0.29319,1.83375 -0.96614,1.859 l 0.0403,1.08572 c 2.49024,-0.0935 4.98292,-0.14927 7.47636,-0.16811 l -0.007,-1.08594 c -0.94001,-0.0706 -1.15303,-0.99638 -1.53186,-2.77701 -1.27381,-6.08658 -2.63491,-12.16521 -4.08454,-18.23314 -0.14522,-0.65594 -0.25538,-1.15751 -0.26402,-1.46777 -0.0162,-0.58164 0.19867,-0.93715 0.61691,-0.94752 l -0.0276,-1.08597 c -2.87213,0.0711 -5.7455,0.1889 -8.61822,0.35449 z m 2.91284,3.42243 c 0.9663,3.77453 1.89834,7.55405 2.79644,11.33793 -1.02663,-1.31896 -2.41048,-1.92225 -4.19165,-1.82477 -0.0511,0.003 -0.1023,0.006 -0.15345,0.008 0.49123,-3.17536 1.00753,-6.34936 1.54866,-9.52161 z"
         style="font-style:normal;font-variant:normal;font-weight:bold;font-stretch:condensed;font-size:medium;line-height:125%;font-family:'ITC Benguiat Condensed';-inkscape-font-specification:'ITC Benguiat Condensed, Bold Condensed';text-align:start;letter-spacing:0px;word-spacing:3.02003455px;writing-mode:lr-tb;text-anchor:start;fill:#000080;fill-opacity:1;stroke:none;stroke-width:1px;stroke-linecap:butt;stroke-linejoin:miter;stroke-opacity:1"
         id="path4157"
         inkscape:connector-curvature="0"
         inkscape:original-d="m 134.86594,652.36214 0,1.08591 c 0.39261,0 0.63421,0.31026 0.63421,0.81443 0,0.27147 -0.1208,0.81443 -0.302,1.66764 l -3.77505,16.63766 c -0.6342,2.71477 -0.99661,4.22729 -2.11402,4.38241 l 0,1.08591 5.37566,0 0,-1.08591 c -0.78521,-0.0776 -1.17781,-0.54295 -1.17781,-1.55129 0,-0.6593 0.1208,-1.27982 0.2416,-1.82278 l 1.23821,-5.85614 c 3.59384,0.15513 6.07027,3.5292 6.07027,7.40744 0,1.24104 -0.3624,1.82277 -1.05701,1.82277 l 0,1.08591 7.73129,0 0,-1.08591 c -0.96641,-0.0776 -1.17781,-1.00834 -1.54022,-2.79233 l -3.65424,-18.3053 c -0.1208,-0.6593 -0.2114,-1.16348 -0.2114,-1.47374 0,-0.58173 0.2114,-0.93077 0.604,-0.93077 l 0,-1.08591 -8.06349,0 z m 2.56703,3.56798 2.23483,11.44082 c -0.96641,-1.35739 -2.29523,-2.01669 -4.04685,-2.01669 -0.0604,0 -0.0906,0 -0.151,0 l 1.96302,-9.42413 z" />
      <path
         d="m 162.21148,628.75052 c 2.76582,-1.85839 4.28132,-3.65678 4.41304,-5.83107 0.15437,-2.5481 -1.42812,-3.5641 -4.83026,-3.70349 -3.97311,-0.16279 -7.94537,-0.23425 -11.91162,-0.21743 l 0.003,1.08593 c 0.998,0.0736 1.50753,0.8906 1.50368,2.40287 l -0.0476,18.65708 c -0.004,1.51318 -0.47811,2.36345 -1.38553,2.44265 l 0.003,1.08593 c 3.15574,-0.006 6.31079,0.047 9.46163,0.16108 4.81015,0.1741 7.30281,-1.6684 7.62704,-6.5657 0.24855,-3.75419 -1.34282,-7.14104 -4.83696,-9.51785 z m -5.42879,2.88323 c 1.02599,-0.40297 2.09032,-0.95388 3.20297,-1.69081 1.19078,1.48289 1.79649,3.64197 1.69826,5.89326 -0.17942,4.11187 -1.59461,6.37331 -3.67262,6.311 -1.23702,-0.0371 -1.45266,-1.00773 -1.40141,-3.18193 z m 0.0594,-2.52142 0.12069,-5.12042 c 0.0456,-1.93641 0.53705,-2.51555 2.23563,-2.46225 1.50775,0.0473 2.27295,0.85957 2.21323,2.33157 -0.0803,1.9795 -1.71908,4.07876 -4.56955,5.2511 z"
         style="font-style:normal;font-variant:normal;font-weight:bold;font-stretch:condensed;font-size:medium;line-height:125%;font-family:'ITC Benguiat Condensed';-inkscape-font-specification:'ITC Benguiat Condensed, Bold Condensed';text-align:start;letter-spacing:0px;word-spacing:3.02003455px;writing-mode:lr-tb;text-anchor:start;fill:#000080;fill-opacity:1;stroke:none;stroke-width:1px;stroke-linecap:butt;stroke-linejoin:miter;stroke-opacity:1"
         id="path4159"
         inkscape:connector-curvature="0"
         inkscape:original-d="m 160.57728,661.86383 c 2.59723,-1.9779 3.92605,-3.87824 3.92605,-6.05006 0,-2.55964 -1.54022,-3.45163 -4.71126,-3.45163 l -11.14392,0 0,1.08591 c 0.93621,0.0776 1.41941,0.89199 1.41941,2.40451 l 0,18.65434 c 0,1.51252 -0.4832,2.36573 -1.41941,2.44329 l 0,1.08591 9.78491,0 c 5.01326,0 7.42928,-2.05547 7.42928,-6.94205 0,-3.7619 -1.81202,-7.01962 -5.28506,-9.23022 z m -5.19446,3.06381 c 0.99661,-0.4266 2.02343,-1.00834 3.08044,-1.78399 1.20801,1.43495 1.90262,3.56799 1.90262,5.81737 0,4.11093 -1.32882,6.43788 -3.47304,6.43788 -1.26841,0 -1.51002,-0.96956 -1.51002,-3.14138 l 0,-7.32988 z m 0,-2.52085 0,-5.11928 c 0,-1.93912 0.45301,-2.52086 2.05363,-2.52086 1.41941,0 2.17442,0.77565 2.17442,2.24938 0,1.9779 -1.47982,4.14972 -4.22805,5.39076 z" />
      <path
         d="m 168.27168,619.56277 -0.0717,1.08433 c 0.89483,0.137 1.29615,0.9064 1.76403,2.37997 1.14169,3.49588 2.22708,6.99909 3.2549,10.50799 l -0.77552,8.58028 c -0.13628,1.50782 -0.65282,2.31686 -1.56142,2.31798 l -0.0915,1.08279 c 2.59365,0.21852 5.18154,0.4805 7.76167,0.78711 l 0.12872,-1.07871 c -0.88841,-0.18362 -1.23533,-1.04096 -1.06061,-2.58368 l 0.99561,-8.7904 c 1.65531,-2.88433 3.36009,-5.75146 5.11501,-8.59972 1.09932,-1.77223 1.91336,-2.68122 2.92576,-2.69435 l 0.15169,-1.07548 c -1.86438,-0.26413 -3.73099,-0.50652 -5.59929,-0.72751 l -0.12704,1.07893 c 0.0321,0.004 0.0641,0.008 0.0641,0.008 0.57807,0.0685 0.87827,0.53582 0.8032,1.15184 -0.0657,0.53936 -0.22249,1.02793 -0.5096,1.54046 -1.20108,2.04329 -2.37761,4.09535 -3.52983,6.15561 -0.55431,-2.2852 -1.13092,-4.56901 -1.72955,-6.85105 -0.14125,-0.5212 -0.1638,-0.95169 -0.1298,-1.29959 0.0792,-0.81048 0.56557,-1.15446 1.46949,-1.09987 l 0.11152,-1.08078 c -3.11706,-0.323 -6.23785,-0.58709 -9.35987,-0.79374 z"
         style="font-style:normal;font-variant:normal;font-weight:bold;font-stretch:condensed;font-size:medium;line-height:125%;font-family:'ITC Benguiat Condensed';-inkscape-font-specification:'ITC Benguiat Condensed, Bold Condensed';text-align:start;letter-spacing:0px;word-spacing:3.02003455px;writing-mode:lr-tb;text-anchor:start;fill:#000080;fill-opacity:1;stroke:none;stroke-width:1px;stroke-linecap:butt;stroke-linejoin:miter;stroke-opacity:1"
         id="path4161"
         inkscape:connector-curvature="0"
         inkscape:original-d="m 165.84819,652.36214 0,1.08591 c 0.84561,0.0776 1.26842,0.81443 1.81202,2.24938 l 3.95625,10.19977 0,8.6097 c 0,1.51252 -0.45301,2.36573 -1.38922,2.44329 l 0,1.08591 8.0937,0 0,-1.08591 c -0.93622,-0.0776 -1.38922,-0.89199 -1.38922,-2.44329 l 0,-8.84239 3.89584,-9.15265 c 0.81541,-1.90034 1.44962,-2.90868 2.38583,-3.06381 l 0,-1.08591 -5.25486,0 0,1.08591 c 0.0302,0 0.0604,0 0.0604,0 0.54361,0 0.87581,0.4266 0.87581,1.04712 0,0.54296 -0.0906,1.04713 -0.302,1.59008 l -2.68783,6.51545 -2.32543,-6.6318 c -0.1812,-0.50417 -0.2416,-0.93077 -0.2416,-1.27982 0,-0.81443 0.4228,-1.20225 1.26841,-1.24103 l 0,-1.08591 -8.7581,0 z" />
      <path
         d="m 215.31504,627.00046 c -0.36308,0.46403 -0.85327,0.5316 -1.5458,0.34847 -0.77911,-0.20601 -2.34435,-1.49836 -4.62853,-2.04908 -3.17796,-0.76621 -5.9271,-0.16346 -8.24944,1.73095 -2.36857,1.93157 -3.86002,4.7628 -4.55676,8.3813 -1.0021,5.20439 0.0375,9.80161 2.60034,12.71923 1.55782,1.76822 3.78664,2.43111 6.6203,3.15295 2.0526,0.52288 4.09524,1.07861 6.12683,1.66784 l 0.30185,-1.04255 c -0.83977,-0.32406 -1.04103,-1.22465 -0.61987,-2.7174 l 2.24183,-7.9459 c 0.41029,-1.45422 1.07593,-2.11451 2.02182,-1.92165 l 0.30186,-1.04254 c -2.68061,-0.77573 -5.37555,-1.49764 -8.08282,-2.16692 l -0.26042,1.05353 c 0.91506,0.3063 1.1908,1.2183 0.81822,2.68265 l -1.50042,5.89715 c -0.52628,2.06844 -1.02157,2.93527 -2.29764,2.62131 -2.67101,-0.65717 -4.00102,-5.38913 -2.3936,-12.69499 1.23133,-5.59647 4.00512,-8.34262 7.33631,-7.52295 2.58457,0.63596 3.95779,3.25729 3.78538,7.34756 0.11449,0.0178 0.22898,0.0358 0.34346,0.0538 0.55443,-2.84892 1.10012,-5.69985 1.6371,-8.55276 z"
         style="font-style:normal;font-variant:normal;font-weight:bold;font-stretch:condensed;font-size:medium;line-height:125%;font-family:'ITC Benguiat Condensed';-inkscape-font-specification:'ITC Benguiat Condensed, Bold Condensed';text-align:start;letter-spacing:0px;word-spacing:3.02003455px;writing-mode:lr-tb;text-anchor:start;fill:#000080;fill-opacity:1;stroke:none;stroke-width:1px;stroke-linecap:butt;stroke-linejoin:miter;stroke-opacity:1"
         id="path4163"
         inkscape:connector-curvature="0"
         inkscape:original-d="m 210.15398,652.05188 c -0.2114,0.54295 -0.6342,0.73687 -1.29861,0.73687 -0.84561,0 -2.35563,-0.85322 -4.62065,-0.85322 -3.02004,0 -5.37567,1.16347 -7.15749,3.49042 -1.81202,2.36573 -2.71803,5.42954 -2.71803,9.11387 0,5.31319 1.87242,9.61804 5.13406,11.94499 1.96302,1.39616 4.40925,1.55129 7.45949,1.55129 l 6.64407,0 0,-1.08591 c -0.93621,-0.0776 -1.38921,-0.89199 -1.38921,-2.44329 l 0,-8.26065 c 0,-1.51252 0.453,-2.32695 1.38921,-2.40451 l 0,-1.08591 -8.12389,0 0,1.08591 c 0.93621,0.0776 1.41942,0.89199 1.41942,2.40451 l 0,6.08884 c 0,2.13303 -0.27181,3.10259 -1.63082,3.10259 -2.89924,0 -5.22466,-4.34363 -5.22466,-11.82864 0,-5.7398 2.02342,-8.99752 5.19446,-8.99752 2.47643,0 4.34885,2.17181 5.22466,6.1664 l 0.3322,-0.0388 -0.63421,-8.68726 z" />
      <path
         d="m 225.78891,638.03971 0.71062,-2.09454 c 0.62123,-1.83106 1.0334,-2.6511 2.81883,-2.03261 2.75576,0.95462 3.99387,3.67425 3.42549,7.45224 0.13755,0.0249 0.27512,0.05 0.41269,0.0753 0.70724,-2.79705 1.39912,-5.59852 2.07575,-8.40411 -0.55204,0.33215 -1.13089,0.28006 -1.90542,-0.004 -2.20109,-0.80711 -4.41159,-1.57054 -6.62824,-2.29145 -1.84298,-0.60807 -3.6924,-1.19103 -5.54766,-1.74924 l -0.31348,1.03922 c 0.9457,0.36581 1.19898,1.29817 0.75224,2.74208 l -5.51186,17.81524 c -0.44707,1.445 -1.14477,2.11971 -2.02493,1.9344 l -0.31347,1.03922 c 1.63568,0.49455 3.26389,1.01113 4.88407,1.55007 1.75582,0.59178 3.50291,1.2079 5.23885,1.84923 1.18532,0.43791 1.89696,0.75482 2.02173,1.46821 1.74325,-2.77286 3.51925,-5.53075 5.32838,-8.2722 -0.0794,-0.0732 -0.15886,-0.14637 -0.23843,-0.21948 -3.27024,3.68745 -6.07844,5.10782 -8.53804,4.23457 -1.86159,-0.66094 -1.51149,-1.79459 -0.68645,-4.22636 l 3.31625,-9.77453 c 0.25735,0.0868 0.51457,0.17421 0.77166,0.26216 2.11279,0.72283 2.80371,2.22639 2.24689,4.99757 0.11554,0.0423 0.23103,0.0847 0.3465,0.1272 0.82208,-2.91354 1.6331,-5.83016 2.43312,-8.74972 -0.12128,-0.0439 -0.24259,-0.0876 -0.36393,-0.13115 -0.84046,1.84803 -1.83424,2.34847 -3.42042,1.8021 -0.4299,-0.14808 -0.86015,-0.29456 -1.29073,-0.43945 0,0 -1e-5,3e-5 -1e-5,3e-5 z"
         style="font-style:normal;font-variant:normal;font-weight:bold;font-stretch:condensed;font-size:medium;line-height:125%;font-family:'ITC Benguiat Condensed';-inkscape-font-specification:'ITC Benguiat Condensed, Bold Condensed';text-align:start;letter-spacing:0px;word-spacing:3.02003455px;writing-mode:lr-tb;text-anchor:start;fill:#000080;fill-opacity:1;stroke:none;stroke-width:1px;stroke-linecap:butt;stroke-linejoin:miter;stroke-opacity:1"
         id="path4165"
         inkscape:connector-curvature="0"
         inkscape:original-d="m 222.57859,659.57567 0,-2.2106 c 0,-1.93912 0.1208,-2.83112 1.87242,-2.83112 2.68784,0 4.65086,2.09426 5.43607,5.81737 l 0.3926,-0.0776 -0.99661,-8.57091 c -0.3624,0.50417 -0.87581,0.6593 -1.63082,0.6593 l -11.80833,0 0,1.08591 c 0.93621,0.0776 1.41941,0.89199 1.41941,2.40451 l 0,18.65434 c 0,1.51252 -0.4832,2.36573 -1.41941,2.4433 l 0,1.0859 11.20432,0 c 1.32882,0 2.14423,0.0388 2.53683,0.65931 l 2.02343,-9.61805 -0.30201,-0.11634 c -1.69122,4.61511 -3.92604,6.94205 -6.64407,6.94205 -2.05363,0 -2.08383,-1.20225 -2.08383,-3.76189 l 0,-10.31613 0.78521,0 c 2.14423,0 3.26164,1.16348 3.68444,3.95581 l 0.36241,0 -0.69461,-9.03631 -0.3624,0 c -0.15101,2.01669 -0.87581,2.83112 -2.47643,2.83112 l -1.29862,0 z" />
      <path
         d="m 243.08258,644.84744 0.91811,-2.0177 c 0.80235,-1.76329 1.29679,-2.54058 3.02638,-1.72674 2.6707,1.25666 3.62825,4.11118 2.66588,7.80681 0.13458,0.04 0.26915,0.0801 0.40369,0.12045 0.99928,-2.70495 1.98172,-5.41788 2.94743,-8.1385 -0.58744,0.26786 -1.16197,0.1498 -1.90972,-0.22139 -3.89697,-1.93454 -7.85574,-3.71171 -11.85612,-5.33855 l -0.41107,1.00846 c 0.91952,0.45829 1.08764,1.4162 0.50381,2.81544 l -7.20442,17.26632 c -0.58435,1.40047 -1.34214,2.00926 -2.19618,1.74417 l -0.41107,1.00846 c 3.28043,1.34013 6.5098,2.77661 9.67089,4.31544 1.12387,0.5471 1.79141,0.93113 1.83661,1.64959 2.02064,-2.57695 4.07604,-5.13031 6.16659,-7.65862 -0.0708,-0.0811 -0.14162,-0.16207 -0.2126,-0.24304 -3.64035,3.31268 -6.56473,4.44771 -8.90842,3.34795 -1.77544,-0.83312 -1.31511,-1.92545 -0.24849,-4.26954 l 4.2845,-9.41594 c 0.24869,0.11327 0.49711,0.22715 0.74527,0.34164 2.03997,0.94117 2.57411,2.51553 1.7332,5.21404 0.11062,0.0541 0.22118,0.10836 0.33167,0.16274 1.1208,-2.81292 2.22951,-5.63158 3.32619,-8.4558 -0.11691,-0.0571 -0.23388,-0.114 -0.35091,-0.17078 -1.02808,1.75164 -2.07184,2.14274 -3.60327,1.42983 -0.41527,-0.19331 -0.83125,-0.3849 -1.24794,-0.57476 z"
         style="font-style:normal;font-variant:normal;font-weight:bold;font-stretch:condensed;font-size:medium;line-height:125%;font-family:'ITC Benguiat Condensed';-inkscape-font-specification:'ITC Benguiat Condensed, Bold Condensed';text-align:start;letter-spacing:0px;word-spacing:3.02003455px;writing-mode:lr-tb;text-anchor:start;fill:#000080;fill-opacity:1;stroke:none;stroke-width:1px;stroke-linecap:butt;stroke-linejoin:miter;stroke-opacity:1"
         id="path4167"
         inkscape:connector-curvature="0"
         inkscape:original-d="m 240.21513,659.57567 0,-2.2106 c 0,-1.93912 0.1208,-2.83112 1.87242,-2.83112 2.68783,0 4.65085,2.09426 5.43606,5.81737 l 0.39261,-0.0776 -0.99661,-8.57091 c -0.36241,0.50417 -0.87581,0.6593 -1.63082,0.6593 l -11.80834,0 0,1.08591 c 0.93621,0.0776 1.41942,0.89199 1.41942,2.40451 l 0,18.65434 c 0,1.51252 -0.48321,2.36573 -1.41942,2.4433 l 0,1.0859 11.20433,0 c 1.32882,0 2.14422,0.0388 2.53683,0.65931 l 2.02342,-9.61805 -0.302,-0.11634 c -1.69122,4.61511 -3.92605,6.94205 -6.64408,6.94205 -2.05362,0 -2.08382,-1.20225 -2.08382,-3.76189 l 0,-10.31613 0.78521,0 c 2.14422,0 3.26164,1.16348 3.68444,3.95581 l 0.3624,0 -0.6946,-9.03631 -0.36241,0 c -0.151,2.01669 -0.87581,2.83112 -2.47643,2.83112 l -1.29861,0 z" />
      <path
         d="m 258.56604,643.88535 c -1.69691,2.17865 -3.37618,4.36981 -5.03794,6.57309 0.0873,0.0625 0.17444,0.12501 0.26154,0.18764 2.50678,-2.65006 5.45779,-3.19812 8.19891,-1.53823 0.25513,0.15449 0.50995,0.30981 0.74403,0.49892 -6.65116,5.08949 -12.9557,10.51281 -18.92695,16.20923 2.94043,1.56054 5.81143,3.21639 8.59816,4.97273 0.85205,0.537 1.30245,0.92541 1.17639,1.67385 2.21914,-2.22038 4.47417,-4.40964 6.76546,-6.56629 -0.0586,-0.0553 -0.11722,-0.1105 -0.17593,-0.16569 -3.62581,2.49478 -6.91888,3.04401 -9.12551,1.72039 -0.26937,-0.16157 -0.56789,-0.38458 -0.87846,-0.70235 6.22824,-5.37789 12.79527,-10.44847 19.71448,-15.15072 -3.21864,-2.18973 -6.5118,-4.24713 -9.86551,-6.17708 -0.90169,-0.5189 -1.39982,-0.92919 -1.44868,-1.53547 z"
         style="font-style:normal;font-variant:normal;font-weight:bold;font-stretch:condensed;font-size:medium;line-height:125%;font-family:'ITC Benguiat Condensed';-inkscape-font-specification:'ITC Benguiat Condensed, Bold Condensed';text-align:start;letter-spacing:0px;word-spacing:3.02003455px;writing-mode:lr-tb;text-anchor:start;fill:#000080;fill-opacity:1;stroke:none;stroke-width:1px;stroke-linecap:butt;stroke-linejoin:miter;stroke-opacity:1"
         id="path4169"
         inkscape:connector-curvature="0"
         inkscape:original-d="m 252.5666,651.74162 -1.14761,8.18309 0.302,0.0388 c 0.87581,-3.5292 2.98984,-5.42954 5.88907,-5.42954 0.27181,0 0.54361,0 0.81541,0.0388 l -8.27489,23.46337 10.66072,0 c 1.08721,0 1.72142,0.0776 2.05362,0.77565 l 2.08383,-9.23022 -0.24161,-0.0388 c -1.63082,4.11094 -4.25825,6.36032 -7.00648,6.36032 -0.3322,0 -0.72481,-0.0388 -1.17781,-0.15513 l 8.30509,-23.3858 -10.44932,0 c -0.93621,0 -1.51001,-0.11635 -1.81202,-0.62052 z" />
      <path
         d="m 267.86204,661.80584 c 2.03019,-2.11239 4.08077,-4.20721 6.15188,-6.28401 0.1877,-0.19829 0.34789,-0.41589 0.48559,-0.603 0.77883,-1.05824 0.71786,-2.06907 -0.14907,-2.69389 -0.86701,-0.62487 -1.89122,-0.34805 -2.66724,0.76083 -0.1108,0.15832 -0.23873,0.39999 -0.34434,0.60926 -1.30758,2.6281 -2.63745,5.24229 -3.98979,7.84214 0.17127,0.12248 0.34226,0.24537 0.51297,0.36867 z"
         style="font-style:normal;font-variant:normal;font-weight:bold;font-stretch:condensed;font-size:medium;line-height:125%;font-family:'ITC Benguiat Condensed';-inkscape-font-specification:'ITC Benguiat Condensed, Bold Condensed';text-align:start;letter-spacing:0px;word-spacing:3.02003455px;writing-mode:lr-tb;text-anchor:start;fill:#000080;fill-opacity:1;stroke:none;stroke-width:1px;stroke-linecap:butt;stroke-linejoin:miter;stroke-opacity:1"
         id="path4171"
         inkscape:connector-curvature="0"
         inkscape:original-d="m 268.70256,661.90261 1.17781,-8.72604 c 0.0302,-0.27148 0.0302,-0.54296 0.0302,-0.77565 0,-1.3186 -0.5738,-2.09425 -1.51001,-2.09425 -0.93621,0 -1.54022,0.81443 -1.54022,2.17182 0,0.19391 0.0302,0.46538 0.0604,0.69808 l 1.17781,8.72604 0.60401,0 z" />
      <path
         d="m 288.59029,666.29301 c -0.57434,0.19621 -0.96946,0.0652 -1.44303,-0.38061 -0.89055,-0.83829 -1.55335,-2.61035 -3.10317,-3.9666 -4.02548,-3.52271 -8.64965,-2.4433 -11.8137,1.63707 -1.64682,2.12375 -2.35902,4.23364 -2.26353,6.43222 0.0692,1.34648 0.93474,3.08949 1.84714,5.88598 0.66105,2.01734 0.50546,3.36299 -1.04179,5.04034 -1.8573,2.01348 -4.38127,2.5872 -5.93045,1.24708 -2.09594,-1.8131 -1.73277,-6.01079 1.42421,-11.15514 -0.11051,-0.0665 -0.22112,-0.13289 -0.33182,-0.19906 -2.29793,3.28162 -4.60999,6.55273 -6.93622,9.8132 0.55445,-0.19393 0.98879,-0.13911 1.32438,0.12664 0.65844,0.52142 1.34511,2.4473 2.98516,3.88109 3.125,2.73198 8.47101,1.66407 12.62393,-2.46567 2.32564,-2.31267 3.38133,-4.64229 3.25313,-7.43961 -0.0565,-1.09305 -0.6985,-2.71872 -1.60316,-5.1175 -0.79137,-2.07033 -0.99144,-3.44626 0.19348,-4.85641 1.18009,-1.40439 3.14917,-1.69583 4.59753,-0.42092 2.04594,1.80093 1.7618,5.24828 -1.09603,9.16662 0.0913,0.0879 0.18246,0.17587 0.2735,0.26404 2.35029,-2.49452 4.69709,-4.9921 7.0404,-7.49271 0,0 4e-5,-5e-5 4e-5,-5e-5 z"
         style="font-style:normal;font-variant:normal;font-weight:bold;font-stretch:condensed;font-size:medium;line-height:125%;font-family:'ITC Benguiat Condensed';-inkscape-font-specification:'ITC Benguiat Condensed, Bold Condensed';text-align:start;letter-spacing:0px;word-spacing:3.02003455px;writing-mode:lr-tb;text-anchor:start;fill:#000080;fill-opacity:1;stroke:none;stroke-width:1px;stroke-linecap:butt;stroke-linejoin:miter;stroke-opacity:1"
         id="path4173"
         inkscape:connector-curvature="0"
         inkscape:original-d="m 285.93891,652.03156 c -0.2416,0.53921 -0.57381,0.71893 -1.14761,0.71893 -1.08721,0 -2.56703,-0.85374 -4.37905,-0.85374 -4.62065,0 -7.36889,3.59473 -7.36889,8.80709 0,2.69606 0.69461,4.80796 2.14423,6.47052 0.87581,0.98856 2.68783,1.84231 5.25486,3.32513 1.87242,1.07843 2.71803,2.15685 2.71803,4.44849 0,2.74099 -1.60062,4.89783 -3.92605,4.89783 -3.17103,0 -5.67766,-3.5498 -6.34207,-9.57098 l -0.3926,0.045 0.5436,12.04236 c 0.36241,-0.49427 0.78521,-0.71895 1.26842,-0.71895 1.02681,0 2.83883,1.07842 5.43606,1.07842 4.95286,0 8.24469,-4.62822 8.24469,-10.46965 0,-3.2802 -0.93621,-5.66171 -2.89923,-7.59388 -0.78521,-0.76389 -2.29522,-1.48283 -4.46965,-2.69606 -1.87242,-1.03349 -2.83883,-1.9771 -2.83883,-3.81939 0,-1.8423 1.20801,-3.32513 2.92943,-3.32513 2.41603,0 4.37905,2.69604 5.01326,7.504 l 0.3624,0 -0.151,-10.28992 z" />
    </g>
    <path
       style="color:#000000;clip-rule:nonzero;display:inline;overflow:visible;visibility:visible;opacity:1;isolation:auto;mix-blend-mode:normal;color-interpolation:sRGB;color-interpolation-filters:linearRGB;solid-color:#000000;solid-opacity:1;fill:#ff0000;fill-opacity:1;fill-rule:evenodd;stroke:none;stroke-width:1.5;stroke-linecap:butt;stroke-linejoin:miter;stroke-miterlimit:4;stroke-dasharray:none;stroke-dashoffset:0;stroke-opacity:1;marker-mid:url(#marker5186);marker-end:url(#marker5214);color-rendering:auto;image-rendering:auto;shape-rendering:auto;text-rendering:auto;enable-background:accumulate"
       d="m 240.51731,973.11322 -7.36277,7.26094 -8.57534,6.5946 -9.66288,5.8321 -10.60951,4.9846 -11.40142,4.06434 -12.02707,3.0848 -12.47735,2.0603 -12.74569,1.0057 -12.82814,-0.063 -12.72356,-1.1317 -12.43342,-2.1836 -11.96198,-3.2033 -11.31609,-4.17674 -10.505212,-5.089 -9.541133,-5.9271 -8.437926,-6.6788 -7.211671,-7.33301 -5.880255,-7.8804 -4.463093,-8.31285 -2.980848,-8.62407 -1.455136,-8.80952 0.0918,-8.86654 1.637389,-8.79422 3.159105,-8.59371 4.634755,-8.26785 6.042819,-7.82143 7.362766,-7.26097 8.575346,-6.59461 9.662879,-5.83211 10.609505,-4.98455 11.40143,-4.0643 12.02707,-3.08479 12.47736,-2.06029 12.74567,-1.00576 12.82816,0.0634 12.72354,1.13173 12.43342,2.1835 11.96198,3.20345 11.3161,4.17666 10.50521,5.08898 9.54113,5.92708 8.43793,6.67876 7.21168,7.33306 5.88025,7.88041 4.46309,8.31284 2.98085,8.62406 1.45514,8.80953 -0.0917,8.86653 -1.63739,8.79424 -3.15911,8.5937 -4.63476,8.26784 z"
       id="path5184"
       inkscape:connector-curvature="0"
       sodipodi:nodetypes="ccccccccccccccccccccccccccccccccccccccccccccccccccccc" />
    <ellipse
       style="color:#000000;clip-rule:nonzero;display:inline;overflow:visible;visibility:visible;opacity:1;isolation:auto;mix-blend-mode:normal;color-interpolation:sRGB;color-interpolation-filters:linearRGB;solid-color:#000000;solid-opacity:1;fill:#ffff00;fill-opacity:1;fill-rule:evenodd;stroke:none;stroke-width:1.5;stroke-linecap:butt;stroke-linejoin:miter;stroke-miterlimit:4;stroke-dasharray:none;stroke-dashoffset:0;stroke-opacity:1;color-rendering:auto;image-rendering:auto;shape-rendering:auto;text-rendering:auto;enable-background:accumulate"
       id="path7463"
       cx="150"
       cy="934.67828"
       rx="105.99139"
       ry="73.322311" />
    <text
       xml:space="preserve"
       style="font-style:normal;font-variant:normal;font-weight:bold;font-stretch:condensed;font-size:50.94458008px;line-height:60.00000238%;font-family:'ITC Benguiat Condensed';-inkscape-font-specification:'ITC Benguiat Condensed, Bold Condensed';text-align:start;letter-spacing:-2.4019382px;word-spacing:5.0944581px;writing-mode:lr-tb;text-anchor:start;fill:#ff0000;fill-opacity:1;stroke:none;stroke-width:1px;stroke-linecap:butt;stroke-linejoin:miter;stroke-opacity:1"
       x="67.84063"
       y="942.52429"
       id="text7753"
       sodipodi:linespacing="60.000002%"><tspan
         sodipodi:role="line"
         id="tspan7755"
         x="67.84063"
         y="942.52429"
         dx="0 0 0 -1 -0.74000007 1.1 -2.0999999 -2.1799998">Security</tspan><tspan
         sodipodi:role="line"
         x="67.84063"
         y="973.09106"
         id="tspan7757"
         dy="0 8.3000002 -8.3000002"
         dx="0 3.2399993 0.37 -1.8048462 -1.13"> Sauce</tspan></text>
    <text
       xml:space="preserve"
       style="font-style:oblique;font-variant:normal;font-weight:300;font-stretch:normal;font-size:16.23103714px;line-height:125%;font-family:'Helvetica Light';-inkscape-font-specification:'Helvetica Light,  Light Oblique';text-align:start;letter-spacing:0px;word-spacing:1.62310374px;writing-mode:lr-tb;text-anchor:start;fill:#000000;fill-opacity:1;stroke:none;stroke-width:1px;stroke-linecap:butt;stroke-linejoin:miter;stroke-opacity:1"
       x="102.29699"
       y="774.86279"
       id="text7763"
       sodipodi:linespacing="125%"><tspan
         sodipodi:role="line"
         id="tspan7765"
         x="102.29699"
         y="774.86279">PASTEABLE</tspan></text>
    <path
       sodipodi:nodetypes="czc"
       inkscape:connector-curvature="0"
       id="path7778"
       d="m 57.469166,859.07168 c 0,0 33.523548,-21.90896 92.935794,-21.90896 59.41225,0 88.39567,21.90896 88.39567,21.90896"
       style="fill:none;fill-rule:evenodd;stroke:none;stroke-width:1.5;stroke-linecap:butt;stroke-linejoin:miter;stroke-miterlimit:4;stroke-dasharray:none;stroke-opacity:1" />
    <g
       transform="translate(0,-3.0304576)"
       style="font-style:normal;font-variant:normal;font-weight:normal;font-stretch:normal;font-size:8px;line-height:125%;font-family:HelveticaExt-No;-inkscape-font-specification:HelveticaExt-No;text-align:start;letter-spacing:4.48999643px;word-spacing:2.23000002px;writing-mode:lr-tb;text-anchor:start;fill:#ff0000;fill-opacity:1;stroke:#ff0000;stroke-width:0.5;stroke-linecap:butt;stroke-linejoin:miter;stroke-miterlimit:4;stroke-dasharray:none;stroke-opacity:1"
       id="text7780">
      <path
         d="m 63.937393,848.99247 2.24465,-1.01629 q 0.575739,-0.26067 0.911524,-0.33367 0.339774,-0.0836 0.663451,-0.0281 0.377304,0.0575 0.659034,0.27243 0.285718,0.20435 0.430902,0.52501 0.18148,0.40083 0.09951,0.76287 -0.07798,0.35146 -0.42011,0.68199 0.580129,-0.0958 1.025348,0.15049 0.449207,0.2357 0.660384,0.70213 0.17818,0.39354 0.148456,0.79339 -0.02244,0.39656 -0.250711,0.7458 -0.189769,0.27912 -0.502601,0.49979 -0.305543,0.21738 -0.939584,0.50445 l -2.324816,1.05258 -2.405434,-5.31282 0,0 z m 2.156031,2.49263 0.798512,1.76365 1.377399,-0.62363 q 0.0073,-0.003 0.0073,-0.003 0.0073,-0.003 0.01458,-0.007 0.532011,-0.24087 0.907276,-0.59519 0.382553,-0.35762 0.125181,-0.92607 -0.250772,-0.55388 -0.74207,-0.53342 -0.491297,0.0205 -1.016021,0.25803 l -1.472141,0.66653 0,0 z m -0.999789,-2.20821 0.696223,1.53773 1.44299,-0.65333 q 0.583026,-0.26397 0.766196,-0.55766 0.187159,-0.30429 0.01228,-0.69054 -0.194678,-0.42998 -0.554107,-0.48679 -0.359428,-0.0568 -0.993469,0.23026 l -1.370111,0.62033 0,0 z"
         style="font-size:8px;text-align:start;letter-spacing:4.48999643px;word-spacing:2.23000002px;text-anchor:start;fill:#ff0000;stroke:#ff0000;stroke-width:0.5;stroke-miterlimit:4;stroke-dasharray:none"
         id="path7858"
         inkscape:connector-curvature="0" />
      <path
         d="m 74.691452,847.60249 q -0.493798,-1.34417 0.04809,-2.42108 0.539125,-1.08442 1.958386,-1.6058 1.389224,-0.51035 2.483604,-0.0601 1.094381,0.45024 1.56611,1.73433 0.452419,1.23153 -0.03736,2.35748 -0.492536,1.11844 -1.979381,1.66465 -1.396733,0.51311 -2.480845,0.0676 -1.086872,-0.45299 -1.558601,-1.73709 l 0,0 z m 0.900352,-0.35632 q 0.358624,0.97621 1.13899,1.33726 0.787875,0.35829 1.786614,-0.009 1.013758,-0.37242 1.36454,-1.15753 0.350783,-0.78512 -0.03267,-1.82891 -0.361383,-0.98372 -1.136232,-1.32976 -0.770097,-0.3563 -1.776346,0.0134 -1.013758,0.37242 -1.37205,1.1603 -0.353541,0.7776 0.02715,1.81389 l 0,0 z"
         style="font-size:8px;text-align:start;letter-spacing:4.48999643px;word-spacing:2.23000002px;text-anchor:start;fill:#ff0000;stroke:#ff0000;stroke-width:0.5;stroke-miterlimit:4;stroke-dasharray:none"
         id="path7860"
         inkscape:connector-curvature="0" />
      <path
         d="m 85.384149,840.73766 0.897594,-0.26537 1.029729,3.48297 q 0.208668,0.7058 0.704793,1.00127 0.50153,0.28552 1.360765,0.0315 0.813205,-0.24042 1.074313,-0.7681 0.266512,-0.53762 0.07372,-1.18972 l -1.036533,-3.50598 0.905265,-0.26764 1.036533,3.50598 q 0.299393,1.01267 -0.185731,1.79846 -0.487392,0.77811 -1.676512,1.12967 -1.181448,0.34929 -1.999987,0.007 -0.820806,-0.34964 -1.129271,-1.393 l -1.054679,-3.56736 0,0 z"
         style="font-size:8px;text-align:start;letter-spacing:4.48999643px;word-spacing:2.23000002px;text-anchor:start;fill:#ff0000;stroke:#ff0000;stroke-width:0.5;stroke-miterlimit:4;stroke-dasharray:none"
         id="path7862"
         inkscape:connector-curvature="0" />
      <path
         d="m 95.851087,837.80821 5.224093,-1.23462 0.16928,0.71627 -2.164382,0.51151 1.172062,4.95939 -0.910909,0.21527 -1.17206,-4.95938 -2.148807,0.50783 -0.169277,-0.71627 0,0 z"
         style="font-size:8px;text-align:start;letter-spacing:4.48999643px;word-spacing:2.23000002px;text-anchor:start;fill:#ff0000;stroke:#ff0000;stroke-width:0.5;stroke-miterlimit:4;stroke-dasharray:none"
         id="path7864"
         inkscape:connector-curvature="0" />
      <path
         d="m 106.63398,835.43335 0.91923,-0.17642 1.09923,5.72747 -0.91922,0.17642 -1.09924,-5.72747 0,0 z"
         style="font-size:8px;text-align:start;letter-spacing:4.48999643px;word-spacing:2.23000002px;text-anchor:start;fill:#ff0000;stroke:#ff0000;stroke-width:0.5;stroke-miterlimit:4;stroke-dasharray:none"
         id="path7866"
         inkscape:connector-curvature="0" />
      <path
         d="m 119.60302,838.49986 0.94291,0.47654 -0.40991,0.56933 -1.06531,-0.53948 q -0.32726,0.25 -0.7273,0.38937 -0.39888,0.14729 -0.93715,0.22603 -1.5119,0.22118 -2.48164,-0.49398 -0.96181,-0.71633 -1.14825,-1.99076 -0.20265,-1.38526 0.55557,-2.33703 0.76613,-0.95293 2.24638,-1.16948 1.47233,-0.21538 2.44302,0.45113 0.97862,0.66535 1.1778,2.02686 0.10074,0.68867 -0.051,1.30917 -0.15294,0.61259 -0.54508,1.0823 l 0,0 z m -0.7763,-0.38771 q 0.30313,-0.35967 0.40452,-0.82727 0.10138,-0.4676 0.0169,-1.04545 -0.1517,-1.03696 -0.83899,-1.53472 -0.67937,-0.49891 -1.74008,-0.34374 -1.06863,0.15633 -1.58106,0.85385 -0.50567,0.68844 -0.34703,1.7729 0.15054,1.02905 0.8413,1.55055 0.69752,0.51243 1.7424,0.35958 0.20581,-0.0301 0.37764,-0.0714 0.17859,-0.0504 0.33787,-0.12219 0.0531,-0.0239 0.10619,-0.0479 0.0598,-0.033 0.11179,-0.0649 l -0.74908,-0.36744 0.402,-0.56817 0.91568,0.45626 0,0 z"
         style="font-size:8px;text-align:start;letter-spacing:4.48999643px;word-spacing:2.23000002px;text-anchor:start;fill:#ff0000;stroke:#ff0000;stroke-width:0.5;stroke-miterlimit:4;stroke-dasharray:none"
         id="path7868"
         inkscape:connector-curvature="0" />
      <path
         d="m 125.58213,832.59877 0.93192,-0.0872 0.33852,3.61619 q 0.0686,0.73279 0.49841,1.11841 0.43703,0.37691 1.32913,0.2934 0.84431,-0.079 1.2023,-0.54643 0.36522,-0.47612 0.30184,-1.15316 l -0.34075,-3.64008 0.93989,-0.088 0.34075,3.64009 q 0.0984,1.0514 -0.52917,1.72885 -0.62834,0.66947 -1.86294,0.78504 -1.22664,0.11483 -1.96384,-0.37861 -0.73794,-0.5014 -0.83935,-1.58467 l -0.34671,-3.7038 0,0 z"
         style="font-size:8px;text-align:start;letter-spacing:4.48999643px;word-spacing:2.23000002px;text-anchor:start;fill:#ff0000;stroke:#ff0000;stroke-width:0.5;stroke-miterlimit:4;stroke-dasharray:none"
         id="path7870"
         inkscape:connector-curvature="0" />
      <path
         d="m 137.0429,831.68625 4.82696,-0.22072 0.0336,0.73523 -3.89193,0.17797 0.0782,1.71021 3.59625,-0.16444 0.0336,0.73523 -3.59625,0.16444 0.0873,1.91001 3.93988,-0.18016 0.0336,0.73523 -4.8749,0.22291 -0.2664,-5.82591 0,0 z"
         style="font-size:8px;text-align:start;letter-spacing:4.48999643px;word-spacing:2.23000002px;text-anchor:start;fill:#ff0000;stroke:#ff0000;stroke-width:0.5;stroke-miterlimit:4;stroke-dasharray:none"
         id="path7872"
         inkscape:connector-curvature="0" />
      <path
         d="m 156.90044,835.29107 0.95928,0.0371 q -0.002,0.04 -0.003,0.0799 0.007,0.0323 0.006,0.0643 0.005,0.28041 0.0604,0.50672 0.0636,0.21862 0.38423,0.41517 0.24256,0.14548 0.55154,0.2295 0.31729,0.0763 0.71699,0.0918 0.74344,0.0288 1.19301,-0.21002 0.45756,-0.23849 0.47365,-0.65418 0.009,-0.23182 -0.1767,-0.39913 -0.17736,-0.17499 -0.61177,-0.3279 l -2.0128,-0.74239 q -0.62348,-0.23228 -0.92257,-0.5721 -0.29877,-0.34782 -0.28052,-0.81946 0.034,-0.87935 0.78495,-1.25059 0.75092,-0.37124 1.63057,-0.3452 0.016,6.2e-4 0.024,9.3e-4 0.016,6.2e-4 0.024,9.3e-4 0.73545,0.0285 1.27131,0.24934 0.53617,0.2129 0.8171,0.60806 0.19026,0.25554 0.2277,0.5292 0.0454,0.27396 0.0503,0.56236 -3e-4,0.008 -6.1e-4,0.016 -3.1e-4,0.008 -6.2e-4,0.016 l -0.96728,-0.0374 q 9.3e-4,-0.024 -0.006,-0.0483 9.3e-4,-0.024 0.002,-0.04 -0.007,-0.22445 -0.0273,-0.3293 -0.0196,-0.11284 -0.0802,-0.20325 -0.008,-0.008 -0.0151,-0.0246 -0.007,-0.0163 -0.0227,-0.0329 -0.14353,-0.22171 -0.50631,-0.36385 -0.35447,-0.14982 -0.79414,-0.16683 -0.61554,-0.0238 -1.02483,0.20852 -0.40929,0.23235 -0.42414,0.61606 -0.009,0.22384 0.098,0.36406 0.11496,0.13255 0.4224,0.25653 0.0393,0.0175 0.0787,0.0351 0.0473,0.0178 0.0947,0.0357 l 2.09981,0.76977 q 0.63147,0.2326 0.93025,0.58041 0.29908,0.33982 0.28052,0.81946 -0.0155,0.3997 -0.26153,0.75846 -0.23775,0.35106 -0.66272,0.5748 -0.34317,0.17886 -0.76196,0.24271 -0.41909,0.0719 -1.00265,0.0493 -1.32701,-0.0514 -1.99624,-0.54961 -0.66124,-0.49794 -0.62566,-1.41725 l 0.007,-0.18386 0,0 z"
         style="font-size:8px;text-align:start;letter-spacing:4.48999643px;word-spacing:2.23000002px;text-anchor:start;fill:#ff0000;stroke:#ff0000;stroke-width:0.5;stroke-miterlimit:4;stroke-dasharray:none"
         id="path7874"
         inkscape:connector-curvature="0" />
      <path
         d="m 168.33716,831.99259 4.81383,0.4187 -0.0638,0.73323 -3.88135,-0.33759 -0.14834,1.70556 3.58646,0.31195 -0.0638,0.73323 -3.58646,-0.31195 -0.16567,1.90481 3.92916,0.34175 -0.0638,0.73323 -4.86165,-0.42285 0.50535,-5.81007 0,0 z"
         style="font-size:8px;text-align:start;letter-spacing:4.48999643px;word-spacing:2.23000002px;text-anchor:start;fill:#ff0000;stroke:#ff0000;stroke-width:0.5;stroke-miterlimit:4;stroke-dasharray:none"
         id="path7876"
         inkscape:connector-curvature="0" />
      <path
         d="m 184.35331,835.66069 -0.91898,-0.12905 q -0.0886,-0.63449 -0.52391,-0.98645 -0.43417,-0.35987 -1.14718,-0.46 -1.00612,-0.1413 -1.66219,0.38862 -0.64704,0.5231 -0.79834,1.60053 -0.14797,1.05366 0.31411,1.73251 0.47112,0.67205 1.42972,0.80667 0.77638,0.10903 1.33111,-0.217 0.56376,-0.33283 0.79968,-1.03484 l 0.91898,0.12905 q -0.28055,0.96234 -1.11425,1.49154 -0.82466,0.52239 -1.99715,0.35774 -1.41017,-0.19804 -2.12394,-1.09804 -0.71378,-0.90001 -0.52242,-2.26264 0.17467,-1.2438 1.06204,-2.04013 0.8964,-0.80314 2.44124,-0.5862 1.19626,0.16799 1.86864,0.78752 0.67238,0.61953 0.64284,1.52017 l 0,0 z"
         style="font-size:8px;text-align:start;letter-spacing:4.48999643px;word-spacing:2.23000002px;text-anchor:start;fill:#ff0000;stroke:#ff0000;stroke-width:0.5;stroke-miterlimit:4;stroke-dasharray:none"
         id="path7878"
         inkscape:connector-curvature="0" />
      <path
         d="m 190.4653,834.85582 0.91776,0.1839 -0.71359,3.56121 q -0.1446,0.72166 0.15645,1.21441 0.31047,0.48648 1.18901,0.66252 0.83147,0.16661 1.30855,-0.17838 0.4865,-0.35126 0.6201,-1.01801 l 0.7183,-3.58474 0.92561,0.18547 -0.71831,3.58474 q -0.20747,1.03542 -1.00309,1.50424 -0.79405,0.46097 -2.00988,0.21735 -1.20799,-0.24206 -1.77255,-0.92632 -0.563,-0.6921 -0.34923,-1.75889 l 0.73087,-3.6475 0,0 z"
         style="font-size:8px;text-align:start;letter-spacing:4.48999643px;word-spacing:2.23000002px;text-anchor:start;fill:#ff0000;stroke:#ff0000;stroke-width:0.5;stroke-miterlimit:4;stroke-dasharray:none"
         id="path7880"
         inkscape:connector-curvature="0" />
      <path
         d="m 201.78581,837.32667 2.68953,0.71907 q 0.67239,0.17977 0.99798,0.32479 0.32559,0.14502 0.5527,0.37964 0.0155,0.004 0.0211,0.0139 0.0134,0.0119 0.019,0.0217 0.27087,0.28773 0.35412,0.65778 0.0853,0.36233 -0.0242,0.77195 -0.13017,0.48689 -0.43695,0.73611 -0.29905,0.25129 -0.82782,0.30866 0.43991,0.27496 0.53196,0.58112 0.10184,0.3005 -0.0635,0.91878 l -0.17151,0.64147 q -0.0641,0.23959 -0.0601,0.47252 0.0117,0.23499 0.12028,0.47933 l -1.06654,-0.28515 q -0.007,-0.19222 -0.0101,-0.33394 0.006,-0.14738 0.0239,-0.27517 0.007,-0.0562 0.0135,-0.11233 0.0165,-0.0618 0.0331,-0.12366 l 0.1901,-0.71102 q 0.16324,-0.61056 -0.18033,-0.84319 -0.33378,-0.2383 -0.92888,-0.3974 l -1.73892,-0.46492 -0.64055,2.39585 -0.90424,-0.24176 1.50633,-5.63411 0,0 z m 0.71414,0.95278 -0.48558,1.81621 1.69255,0.45252 q 0.5951,0.15911 1.08055,0.13984 0.48751,-0.027 0.65488,-0.65301 0.15911,-0.5951 -0.22464,-0.86332 -0.38374,-0.26821 -0.95565,-0.42112 l -1.76211,-0.47112 0,0 z"
         style="font-size:8px;text-align:start;letter-spacing:4.48999643px;word-spacing:2.23000002px;text-anchor:start;fill:#ff0000;stroke:#ff0000;stroke-width:0.5;stroke-miterlimit:4;stroke-dasharray:none"
         id="path7882"
         inkscape:connector-curvature="0" />
      <path
         d="m 212.80501,840.51718 0.88906,0.29267 -1.82361,5.53956 -0.88906,-0.29268 1.82361,-5.53955 0,0 z"
         style="font-size:8px;text-align:start;letter-spacing:4.48999643px;word-spacing:2.23000002px;text-anchor:start;fill:#ff0000;stroke:#ff0000;stroke-width:0.5;stroke-miterlimit:4;stroke-dasharray:none"
         id="path7884"
         inkscape:connector-curvature="0" />
      <path
         d="m 219.15351,842.71287 4.98976,1.97933 -0.27139,0.68414 -2.06729,-0.82005 -1.87903,4.73692 -0.87005,-0.34513 1.87904,-4.73692 -2.05242,-0.81415 0.27138,-0.68414 0,0 z"
         style="font-size:8px;text-align:start;letter-spacing:4.48999643px;word-spacing:2.23000002px;text-anchor:start;fill:#ff0000;stroke:#ff0000;stroke-width:0.5;stroke-miterlimit:4;stroke-dasharray:none"
         id="path7886"
         inkscape:connector-curvature="0" />
      <path
         d="m 228.83497,846.74861 0.98785,0.49292 0.56088,3.37332 2.95386,-1.61954 0.98785,0.49292 -3.88017,2.00669 -1.0287,2.0616 -0.83753,-0.41791 1.0287,-2.0616 -0.77274,-4.3284 0,0 z"
         style="font-size:8px;text-align:start;letter-spacing:4.48999643px;word-spacing:2.23000002px;text-anchor:start;fill:#ff0000;stroke:#ff0000;stroke-width:0.5;stroke-miterlimit:4;stroke-dasharray:none"
         id="path7888"
         inkscape:connector-curvature="0" />
    </g>
    <text
       xml:space="preserve"
       style="font-style:normal;font-variant:normal;font-weight:bold;font-stretch:normal;font-size:16.76838112px;line-height:125%;font-family:'Segoe Print';-inkscape-font-specification:'Segoe Print Bold';text-align:start;letter-spacing:0px;word-spacing:1.67683828px;writing-mode:lr-tb;text-anchor:start;fill:#000080;fill-opacity:1;stroke:none;stroke-width:1px;stroke-linecap:butt;stroke-linejoin:miter;stroke-opacity:1"
       x="112.24716"
       y="900.61774"
       id="text7890"
       sodipodi:linespacing="125%"><tspan
         sodipodi:role="line"
         id="tspan7892"
         x="112.24716"
         y="900.61774">Certified</tspan></text>
    <path
       sodipodi:type="star"
       style="color:#000000;clip-rule:nonzero;display:inline;overflow:visible;visibility:visible;opacity:1;isolation:auto;mix-blend-mode:normal;color-interpolation:sRGB;color-interpolation-filters:linearRGB;solid-color:#000000;solid-opacity:1;fill:#ff0000;fill-opacity:1;fill-rule:evenodd;stroke:none;stroke-width:0.5;stroke-linecap:butt;stroke-linejoin:miter;stroke-miterlimit:4;stroke-dasharray:none;stroke-dashoffset:0;stroke-opacity:1;color-rendering:auto;image-rendering:auto;shape-rendering:auto;text-rendering:auto;enable-background:accumulate"
       id="path7898"
       sodipodi:sides="5"
       sodipodi:cx="131.6582"
       sodipodi:cy="876.64783"
       sodipodi:r1="6.4285712"
       sodipodi:r2="2.613838"
       sodipodi:arg1="-1.5707963"
       sodipodi:arg2="-0.9424778"
       inkscape:flatsided="false"
       inkscape:rounded="0"
       inkscape:randomized="0"
       d="m 131.6582,870.21926 1.53638,4.31393 4.57756,0.1281 -3.62803,2.79426 1.29271,4.3931 -3.77862,-2.58698 -3.77862,2.58698 1.29272,-4.3931 -3.62803,-2.79426 4.57756,-0.1281 z"
       inkscape:transform-center-y="-0.61387396"
       inkscape:tile-cx="-77.85714"
       inkscape:tile-cy="148.92857"
       inkscape:tile-w="12.227869"
       inkscape:tile-h="11.629395"
       inkscape:tile-x0="-83.971074"
       inkscape:tile-y0="142.5" />
    <use
       x="0"
       y="0"
       inkscape:tiled-clone-of="#path7898"
       xlink:href="#path7898"
       id="use7908"
       inkscape:transform-center-y="-0.61387396"
       width="100%"
       height="100%"
       transform="translate(3.9658267e-6,-3.6803625e-7)" />
    <use
       x="0"
       y="0"
       inkscape:tiled-clone-of="#path7898"
       xlink:href="#path7898"
       transform="translate(12.227874,-3.6803625e-7)"
       id="use7910"
       inkscape:transform-center-y="-0.61387396"
       width="100%"
       height="100%" />
    <use
       x="0"
       y="0"
       inkscape:tiled-clone-of="#path7898"
       xlink:href="#path7898"
       transform="translate(24.455734,-3.6803625e-7)"
       id="use7912"
       inkscape:transform-center-y="-0.61387396"
       width="100%"
       height="100%" />
    <use
       x="0"
       y="0"
       inkscape:tiled-clone-of="#path7898"
       xlink:href="#path7898"
       transform="translate(36.683604,-3.6803625e-7)"
       id="use7914"
       inkscape:transform-center-y="-0.61387396"
       width="100%"
       height="100%" />
    <path
       style="fill:#c8ab37;fill-opacity:1"
       d="m 252.60352,170.47852 c 0,0 -1.71619,3.94663 -1.64649,5.50195 0.2186,4.8754 2.45659,8.45087 6.4668,11.86523 1.21441,0.97119 2.53024,1.91623 4.01758,2.77344 0.74384,0.428 1.49118,0.85541 2.2832,1.25586 0.79943,0.39595 1.60425,0.78654 2.44336,1.15234 0.81569,0.37809 1.68002,0.72476 2.54687,1.06055 0.87517,0.32778 1.74187,0.64868 2.59375,0.9668 1.68955,0.63551 3.23348,1.2993 4.64844,1.95312 0.70587,0.32747 1.36478,0.66157 2,0.98438 0.61976,0.3311 1.21475,0.65319 1.75781,0.97656 1.08225,0.64871 1.99406,1.2841 2.68164,1.9082 0.36117,0.30344 0.65692,0.60948 0.88868,0.91211 0.22686,0.30512 0.40333,0.60095 0.53711,0.88086 0.1259,0.28387 0.19026,0.56016 0.19726,0.82422 0.0179,0.2586 -0.011,0.50049 -0.0781,0.7168 -0.0682,0.21664 -0.16143,0.40062 -0.23243,0.52929 -0.0804,0.13267 -0.12304,0.20313 -0.12304,0.20313 0,0 0.0849,-0.0875 0.24609,-0.25391 0.15456,-0.16412 0.36167,-0.40116 0.56836,-0.68164 0.20771,-0.281 0.42501,-0.61067 0.60156,-0.96484 0.16868,-0.3502 0.30948,-0.73 0.41211,-1.12891 0.21906,-0.80481 0.16757,-1.63136 -0.0273,-2.51367 -0.23386,-0.86321 -0.68554,-1.74594 -1.38086,-2.60547 -0.34332,-0.43233 -0.74386,-0.86194 -1.20898,-1.2793 -0.45024,-0.42484 -0.97432,-0.83258 -1.54688,-1.23632 -1.14011,-0.81001 -2.51967,-1.57446 -4.11328,-2.27735 -0.38689,-0.18024 -0.81648,-0.34574 -1.24219,-0.50976 -0.42411,-0.16532 -0.84878,-0.33378 -1.27734,-0.50196 -0.42057,-0.1722 -0.84228,-0.34465 -1.26563,-0.51953 -0.42157,-0.17602 -0.84276,-0.35453 -1.26953,-0.53125 -0.84438,-0.35779 -1.65807,-0.73808 -2.46484,-1.125 -0.81163,-0.38446 -1.61022,-0.77787 -2.38672,-1.18359 -0.18461,-0.0982 -0.35987,-0.19992 -0.54297,-0.29883 -0.15645,-0.33539 -0.30523,-0.67574 -0.44727,-1.01953 -0.15612,-0.39002 -0.29896,-0.78589 -0.43164,-1.18555 -0.13551,-0.39825 -0.26559,-0.79973 -0.37109,-1.20703 -0.0501,-0.20503 -0.10164,-0.40657 -0.15234,-0.60937 -0.0494,-0.20329 -0.0986,-0.40578 -0.14649,-0.60743 -0.0432,-0.20402 -0.087,-0.40574 -0.1289,-0.60742 -0.0405,-0.20205 -0.0817,-0.40774 -0.14258,-0.59765 -0.22042,-0.77425 -0.53135,-1.47399 -0.92578,-2.08985 -0.19577,-0.30866 -0.40401,-0.60083 -0.64063,-0.86523 -0.22789,-0.26878 -0.47817,-0.51289 -0.74219,-0.73633 -0.52231,-0.4493 -1.1103,-0.80733 -1.72851,-1.07422 -0.64078,-0.25528 -1.26908,-0.44223 -1.9336,-0.51758 -0.32815,-0.0397 -0.64915,-0.0609 -0.95312,-0.0645 -0.3086,-0.001 -0.60679,0.0192 -0.86524,0.0449 -0.25788,0.0255 -0.481,0.0596 -0.63867,0.0879 -0.16079,0.0304 -0.24609,0.0469 -0.24609,0.0469 0,0 0.0634,-0.005 0.18164,-0.01 0.11349,-0.002 0.27432,-0.001 0.45508,0.0156 0.18024,0.017 0.37263,0.0541 0.56836,0.11328 0.20211,0.056 0.4023,0.13691 0.5957,0.24414 0.1888,0.10954 0.38089,0.23904 0.57031,0.39062 0.18663,0.15297 0.36238,0.33257 0.52344,0.53711 0.34243,0.39874 0.64793,0.88885 0.92969,1.44922 0.13977,0.28074 0.26822,0.58177 0.39844,0.89453 0.12073,0.31721 0.24542,0.64597 0.35546,0.99219 0.21865,0.69343 0.41729,1.43954 0.56641,2.23828 0.0596,0.32653 0.12051,0.65996 0.18164,0.99414 -3.9603,-2.6943 -6.92415,-5.4714 -8.57617,-9.13281 -0.58739,-1.30192 -0.33984,-4.57812 -0.33984,-4.57812 z m -5.70508,0.87304 c 0,0 -1.52974,2.14146 -2.00586,3.09375 -0.71288,1.42579 -1.21866,2.76749 -1.51758,4.01563 -0.59865,-0.20616 -1.35408,-0.32517 -2.39258,-0.28125 -1.81835,0.0769 -4.43397,0.77118 -7.91992,1.87304 2.94707,-0.6788 5.00308,-1.06531 6.25,-0.84375 2.61605,0.46488 1.19782,3.02136 1.96289,4.45118 0.68883,1.28728 1.58907,2.72583 2.36523,3.71484 0.77715,0.98852 1.78663,1.93578 2.91602,2.87109 1.12258,0.94009 2.46941,1.81462 3.93555,2.65235 1.31389,0.7385 2.70387,1.45794 4.22265,2.11133 0.33244,0.31618 0.64604,0.62783 0.89649,0.94335 0.20422,0.26139 0.41486,0.50547 0.58008,0.75391 0.16763,0.24728 0.30372,0.49321 0.41406,0.73242 0.12056,0.2344 0.20497,0.46673 0.26367,0.69141 0.0539,0.22687 0.0818,0.44516 0.0898,0.65039 0.004,0.41657 -0.11144,0.80017 -0.26953,1.0957 -0.0798,0.14789 -0.16751,0.27242 -0.22851,0.35743 -0.0713,0.0897 -0.10938,0.13671 -0.10938,0.13671 l 0.16406,-0.1582 c 0.10234,-0.1021 0.24013,-0.2488 0.38477,-0.42578 0.14478,-0.17674 0.29938,-0.38363 0.43555,-0.60938 0.13361,-0.22496 0.25357,-0.47071 0.35742,-0.73046 0.21215,-0.52132 0.29383,-1.07323 0.29883,-1.66602 -0.008,-0.15997 -0.041,-0.32756 -0.0625,-0.49219 0.92628,0.33612 1.87711,0.65604 2.84375,0.96094 1.8838,0.61546 3.92665,1.13201 5.83984,1.64258 0.96508,0.25285 1.85808,0.53143 2.75,0.79492 0.88775,0.26539 1.72817,0.54099 2.51953,0.82227 1.55083,0.58051 3.03863,1.11635 4.23438,1.70507 0.59388,0.29628 1.1863,0.56965 1.69336,0.85743 0.51114,0.28568 0.96033,0.57578 1.35156,0.86328 0.40817,0.27906 0.74524,0.56215 1.02344,0.84179 0.27015,0.28352 0.48034,0.56304 0.64453,0.82813 0.30634,0.54098 0.35231,1.0623 0.25,1.48047 -0.0524,0.20936 -0.13882,0.39197 -0.19922,0.51562 -0.0775,0.13191 -0.11719,0.19922 -0.11719,0.19922 l 0.21289,-0.24023 c 0.13016,-0.15461 0.29837,-0.37368 0.45899,-0.63477 0.16104,-0.26079 0.31701,-0.56401 0.42578,-0.88672 0.10426,-0.32114 0.16935,-0.66535 0.18945,-1.02539 0.0475,-0.72331 -0.18801,-1.46041 -0.60351,-2.23242 -0.46904,-0.74526 -1.12968,-1.52105 -2.06836,-2.25391 -0.95908,-0.72211 -2.0628,-1.47079 -3.49414,-2.125 -1.40129,-0.67016 -2.98654,-1.32057 -4.83789,-1.88086 -0.91646,-0.2868 -1.91376,-0.53981 -2.88086,-0.81445 -0.47994,-0.13956 -0.96059,-0.28115 -1.44727,-0.42187 -0.47882,-0.14475 -0.96059,-0.28828 -1.44531,-0.4336 -1.91296,-0.59406 -3.78366,-1.23635 -5.57813,-1.91797 -1.76918,-0.68895 -4.83029,-2.18965 -6.89648,-3.47656 -0.58121,-0.55529 -1.14311,-1.11873 -1.63086,-1.7207 -1.66389,-2.05356 -3.46807,-4.04349 -4.28125,-6.51172 l -0.002,0 c -0.67239,-2.04086 -0.3357,-4.4182 -0.49024,-6.8418 0.0238,-0.9448 0.50391,-3.03125 0.50391,-3.03125 z"
       transform="translate(0,692.36214)"
       id="path18"
       inkscape:connector-curvature="0" />
    <path
       style="fill:#c8ab37;fill-opacity:1"
       d="m 280.76367,971.93639 c 0,0 0.0396,0.0673 0.11719,0.19922 0.0604,0.12365 0.14678,0.30626 0.19922,0.51562 0.10231,0.41817 0.0563,0.93949 -0.25,1.48047 -0.16419,0.26509 -0.37438,0.54461 -0.64453,0.82813 -0.2782,0.27964 -0.61527,0.56273 -1.02344,0.84179 -0.39123,0.28751 -0.84042,0.57761 -1.35156,0.86329 -0.50706,0.28778 -1.09948,0.56114 -1.69336,0.85742 -1.19575,0.58872 -2.68355,1.12652 -4.23438,1.70703 -0.79136,0.28128 -1.63178,0.55492 -2.51953,0.82031 -0.89192,0.26349 -1.78492,0.54207 -2.75,0.79492 -1.91319,0.51057 -3.95604,1.02712 -5.83984,1.64258 -0.96603,0.30471 -1.91607,0.62506 -2.8418,0.96094 0.0214,-0.16426 0.053,-0.33062 0.0605,-0.49023 -0.005,-0.5928 -0.0867,-1.14665 -0.29883,-1.66797 -0.10385,-0.25975 -0.22381,-0.50551 -0.35742,-0.73047 -0.13617,-0.22575 -0.29077,-0.43264 -0.43555,-0.60938 -0.14464,-0.17698 -0.28243,-0.32368 -0.38477,-0.42578 l -0.16406,-0.1582 c 0,0 0.0381,0.047 0.10938,0.13672 0.061,0.085 0.14874,0.20953 0.22851,0.35742 0.15809,0.29553 0.27318,0.67913 0.26953,1.0957 -0.008,0.20523 -0.0359,0.42352 -0.0898,0.65039 -0.0587,0.22468 -0.14311,0.45701 -0.26367,0.69141 -0.11034,0.23921 -0.24643,0.48514 -0.41406,0.73242 -0.16522,0.24844 -0.37586,0.49253 -0.58008,0.75391 -0.25095,0.31614 -0.56524,0.62848 -0.89844,0.94531 -1.51801,0.65317 -2.90738,1.37119 -4.2207,2.10937 -1.46614,0.83773 -2.81297,1.71226 -3.93555,2.65235 -1.12939,0.93531 -2.13887,1.88257 -2.91602,2.87109 -0.77616,0.98898 -1.6764,2.42755 -2.36523,3.71485 -0.76507,1.4298 0.65316,3.98638 -1.96289,4.45118 -1.24692,0.2216 -3.30293,-0.165 -6.25,-0.84376 3.48595,1.10186 6.10157,1.79616 7.91992,1.87306 1.0385,0.044 1.79393,-0.075 2.39258,-0.2813 0.29892,1.2482 0.8047,2.5899 1.51758,4.0157 0.47612,0.9523 2.00586,3.0937 2.00586,3.0937 0,0 -0.48009,-2.0864 -0.50391,-3.0312 0.15454,-2.4236 -0.18215,-4.801 0.49024,-6.84184 l 0.002,0 c 0.81318,-2.4682 2.61736,-4.45814 4.28125,-6.51172 0.48775,-0.60197 1.04965,-1.16541 1.63086,-1.7207 2.06619,-1.2869 5.1273,-2.78761 6.89648,-3.47656 1.79447,-0.68162 3.66517,-1.32391 5.57813,-1.91797 0.48472,-0.14532 0.96649,-0.28884 1.44531,-0.43359 0.48668,-0.14072 0.96733,-0.28232 1.44727,-0.42188 0.9671,-0.27464 1.9644,-0.52765 2.88086,-0.81445 1.85135,-0.56029 3.4366,-1.2107 4.83789,-1.88086 1.43134,-0.65421 2.53506,-1.40289 3.49414,-2.125 0.93868,-0.73286 1.59932,-1.50865 2.06836,-2.25391 0.4155,-0.77201 0.65105,-1.50911 0.60351,-2.23242 -0.0201,-0.36004 -0.0852,-0.70425 -0.18945,-1.02539 -0.10877,-0.32271 -0.26474,-0.62593 -0.42578,-0.88672 -0.16062,-0.26109 -0.32883,-0.48016 -0.45899,-0.63477 l -0.21289,-0.24023 z m 2.82227,2.85938 c 0,0 0.0426,0.0685 0.12304,0.20117 0.071,0.12867 0.1642,0.31265 0.23243,0.52929 0.0671,0.21631 0.096,0.4582 0.0781,0.7168 -0.007,0.26406 -0.0714,0.5423 -0.19726,0.82617 -0.13378,0.27991 -0.31025,0.57379 -0.53711,0.87891 -0.23176,0.30263 -0.52751,0.60867 -0.88868,0.91211 -0.68758,0.6241 -1.59939,1.25949 -2.68164,1.9082 -0.54306,0.32337 -1.13805,0.64546 -1.75781,0.97656 -0.63522,0.32281 -1.29413,0.65691 -2,0.98438 -1.41496,0.65382 -2.95889,1.31761 -4.64844,1.95312 -0.85188,0.31812 -1.71858,0.63902 -2.59375,0.9668 -0.86685,0.33579 -1.73118,0.68246 -2.54687,1.06055 -0.83911,0.3658 -1.64393,0.75639 -2.44336,1.15234 -0.79202,0.40045 -1.53936,0.82786 -2.2832,1.25586 -1.48734,0.85721 -2.80317,1.80225 -4.01758,2.77344 -4.01021,3.41437 -6.2482,6.98983 -6.4668,11.86523 -0.0697,1.5553 1.64649,5.5039 1.64649,5.5039 0,0 -0.24755,-3.2782 0.33984,-4.5801 1.65202,-3.6614 4.61587,-6.43852 8.57617,-9.13278 -0.0612,0.33427 -0.12204,0.66943 -0.18164,0.99609 -0.14912,0.7988 -0.34776,1.54488 -0.56641,2.23828 -0.11004,0.3462 -0.23473,0.67489 -0.35546,0.99219 -0.13022,0.31272 -0.25867,0.61382 -0.39844,0.89452 -0.28176,0.5604 -0.58726,1.0504 -0.92969,1.4492 -0.16106,0.2045 -0.33681,0.3841 -0.52344,0.5371 -0.18942,0.1516 -0.38151,0.2811 -0.57031,0.3907 -0.1934,0.1072 -0.39359,0.1881 -0.5957,0.2441 -0.19573,0.059 -0.38812,0.096 -0.56836,0.1133 -0.18076,0.015 -0.34159,0.014 -0.45508,0.014 -0.11827,-0.01 -0.18164,-0.01 -0.18164,-0.01 0,0 0.0853,0.017 0.24609,0.047 0.15767,0.029 0.38079,0.065 0.63867,0.09 0.25845,0.025 0.55664,0.043 0.86524,0.043 0.30397,0 0.62497,-0.024 0.95312,-0.065 0.66452,-0.075 1.29282,-0.2624 1.9336,-0.5176 0.61821,-0.2669 1.2062,-0.6249 1.72851,-1.0742 0.26402,-0.2234 0.5143,-0.4676 0.74219,-0.7363 0.23662,-0.2644 0.44486,-0.5566 0.64063,-0.8652 0.39443,-0.61593 0.70536,-1.31557 0.92578,-2.08988 0.0609,-0.1899 0.10208,-0.39555 0.14258,-0.59765 0.0419,-0.2017 0.0857,-0.40332 0.1289,-0.60742 0.0479,-0.2016 0.0971,-0.40412 0.14649,-0.60743 0.0507,-0.20279 0.10224,-0.40427 0.15234,-0.60937 0.1055,-0.4072 0.23558,-0.80873 0.37109,-1.20703 0.13268,-0.3997 0.27552,-0.79555 0.43164,-1.18555 0.14204,-0.34378 0.29082,-0.68414 0.44727,-1.01953 0.1831,-0.0989 0.35836,-0.20065 0.54297,-0.29883 0.7765,-0.40572 1.57509,-0.79913 2.38672,-1.18359 0.80677,-0.38692 1.62046,-0.76721 2.46484,-1.125 0.42677,-0.17672 0.84796,-0.35523 1.26953,-0.53125 0.42335,-0.17488 0.84506,-0.34733 1.26563,-0.51953 0.42856,-0.16818 0.85323,-0.33664 1.27734,-0.50196 0.42571,-0.16402 0.8553,-0.32952 1.24219,-0.50976 1.59361,-0.70289 2.97317,-1.46733 4.11328,-2.27734 0.57256,-0.40374 1.09664,-0.81148 1.54688,-1.23633 0.46512,-0.41735 0.86566,-0.84697 1.20898,-1.2793 0.69532,-0.85953 1.147,-1.74031 1.38086,-2.60352 0.19491,-0.88231 0.2464,-1.71081 0.0273,-2.51562 -0.10263,-0.39891 -0.24343,-0.77871 -0.41211,-1.12891 -0.17655,-0.35417 -0.39385,-0.68384 -0.60156,-0.96484 -0.20669,-0.28048 -0.4138,-0.51752 -0.56836,-0.68164 -0.16123,-0.16645 -0.24609,-0.25195 -0.24609,-0.25195 z"
       id="path7966"
       inkscape:connector-curvature="0" />
    <path
       style="fill:#c8ab37;fill-opacity:1"
       d="m 47.822266,170.47852 c 0,0 0.247543,3.2762 -0.339844,4.57812 -1.652064,3.6615 -4.615731,6.43846 -8.576172,9.13281 0.06115,-0.33428 0.122053,-0.66751 0.181641,-0.99414 0.149124,-0.79874 0.347753,-1.54485 0.566406,-2.23828 0.110032,-0.34622 0.234738,-0.67498 0.355469,-0.99219 0.130227,-0.31276 0.258669,-0.61379 0.398437,-0.89453 0.281764,-0.56037 0.587264,-1.05048 0.929688,-1.44922 0.161058,-0.20454 0.336805,-0.38414 0.523437,-0.53711 0.189413,-0.15158 0.381519,-0.28108 0.570313,-0.39062 0.193401,-0.10723 0.395544,-0.18814 0.597656,-0.24414 0.195726,-0.0592 0.388112,-0.0963 0.568359,-0.11328 0.180754,-0.0169 0.339635,-0.0176 0.453125,-0.0156 0.118271,0.005 0.181641,0.01 0.181641,0.01 0,0 -0.0853,-0.0165 -0.246094,-0.0469 -0.157675,-0.0283 -0.380777,-0.0624 -0.638672,-0.0879 -0.258449,-0.0257 -0.556627,-0.0459 -0.865234,-0.0449 -0.303964,0.004 -0.624974,0.0248 -0.953125,0.0645 -0.664514,0.0753 -1.290861,0.2623 -1.931641,0.51758 -0.618216,0.26689 -1.206212,0.62492 -1.728515,1.07422 -0.264019,0.22344 -0.516252,0.46755 -0.744141,0.73633 -0.236617,0.2644 -0.444858,0.55657 -0.640625,0.86523 -0.394433,0.61586 -0.705368,1.3156 -0.925781,2.08985 -0.06091,0.18991 -0.102038,0.3956 -0.142578,0.59765 -0.0419,0.20168 -0.08571,0.4034 -0.128907,0.60742 -0.04792,0.20165 -0.09705,0.40414 -0.146484,0.60743 -0.0507,0.2028 -0.102214,0.40434 -0.152344,0.60937 -0.105501,0.4073 -0.233633,0.80878 -0.36914,1.20703 -0.132685,0.39966 -0.275513,0.79553 -0.431641,1.18555 -0.142142,0.34406 -0.294588,0.68389 -0.451172,1.01953 -0.182098,0.0984 -0.355473,0.20119 -0.539062,0.29883 -0.776492,0.40572 -1.57704,0.79913 -2.388672,1.18359 -0.806767,0.38692 -1.62046,0.76721 -2.464844,1.125 -0.426769,0.17672 -0.847955,0.35523 -1.269531,0.53125 -0.423344,0.17488 -0.845057,0.34733 -1.265625,0.51953 -0.428566,0.16818 -0.851282,0.33664 -1.275391,0.50196 -0.425711,0.16402 -0.857245,0.32952 -1.244141,0.50976 -1.593609,0.70289 -2.971223,1.46734 -4.111328,2.27735 -0.572564,0.40374 -1.098593,0.81148 -1.548828,1.23632 -0.465121,0.41736 -0.863709,0.84697 -1.207031,1.2793 -0.695319,0.85953 -1.14895,1.74226 -1.382813,2.60547 -0.194914,0.88231 -0.246395,1.70886 -0.02734,2.51367 0.102623,0.39891 0.245383,0.77871 0.414062,1.12891 0.176549,0.35417 0.391892,0.68384 0.59961,0.96484 0.20669,0.28048 0.413798,0.51752 0.568359,0.68164 0.161225,0.16645 0.248047,0.25391 0.248047,0.25391 0,0 -0.04458,-0.0705 -0.125,-0.20313 -0.07099,-0.12867 -0.164185,-0.31265 -0.232422,-0.52929 -0.06707,-0.21631 -0.09595,-0.4582 -0.07813,-0.7168 0.007,-0.26406 0.07132,-0.54035 0.197266,-0.82422 0.133775,-0.27991 0.310252,-0.57574 0.537109,-0.88086 0.231763,-0.30263 0.527507,-0.60867 0.888672,-0.91211 0.687584,-0.6241 1.59939,-1.25949 2.681641,-1.9082 0.543061,-0.32337 1.138053,-0.64546 1.757812,-0.97656 0.635219,-0.32281 1.294139,-0.65691 2,-0.98438 1.414963,-0.65382 2.958888,-1.31761 4.648438,-1.95312 0.851883,-0.31812 1.718574,-0.63902 2.59375,-0.9668 0.866849,-0.33579 1.731177,-0.68246 2.546874,-1.06055 0.839109,-0.3658 1.643933,-0.75639 2.44336,-1.15234 0.792027,-0.40045 1.539366,-0.82786 2.283203,-1.25586 1.487342,-0.85721 2.803169,-1.80225 4.017578,-2.77344 4.010213,-3.41436 6.248193,-6.98983 6.466797,-11.86523 0.06971,-1.55532 -1.646484,-5.50195 -1.646484,-5.50195 z m 5.707031,0.87304 c 0,0 0.47813,2.08645 0.501953,3.03125 -0.15454,2.4236 0.184113,4.80094 -0.488281,6.8418 l -0.002,0 c -0.813182,2.46823 -2.617358,4.45816 -4.28125,6.51172 -0.487748,0.60197 -1.051605,1.16541 -1.632813,1.7207 -2.066199,1.28691 -5.127296,2.78761 -6.896484,3.47656 -1.794475,0.68162 -3.663206,1.32391 -5.576172,1.91797 -0.484714,0.14532 -0.968443,0.28885 -1.447266,0.4336 -0.486676,0.14072 -0.967323,0.28231 -1.447265,0.42187 -0.967096,0.27464 -1.964396,0.52765 -2.88086,0.81445 -1.851362,0.56029 -3.434651,1.2107 -4.835937,1.88086 -1.431337,0.65421 -2.537014,1.40289 -3.496094,2.125 -0.938679,0.73286 -1.59736,1.50865 -2.066406,2.25391 -0.415495,0.77201 -0.65301,1.50911 -0.605469,2.23242 0.02012,0.36004 0.08523,0.70425 0.189453,1.02539 0.10877,0.32271 0.264745,0.62593 0.425781,0.88672 0.16062,0.26109 0.330776,0.48016 0.460938,0.63477 l 0.21289,0.24023 c 0,0 -0.04164,-0.0673 -0.11914,-0.19922 -0.06039,-0.12365 -0.146784,-0.30626 -0.199219,-0.51562 -0.102311,-0.41817 -0.05637,-0.93949 0.25,-1.48047 0.164189,-0.26509 0.376339,-0.54461 0.646485,-0.82813 0.278206,-0.27964 0.615268,-0.56273 1.023437,-0.84179 0.391236,-0.2875 0.838468,-0.5776 1.349609,-0.86328 0.507054,-0.28778 1.099477,-0.56115 1.69336,-0.85743 1.19575,-0.58872 2.683547,-1.12456 4.234375,-1.70507 0.791363,-0.28128 1.631782,-0.55688 2.519531,-0.82227 0.891923,-0.26349 1.78492,-0.54207 2.75,-0.79492 1.913183,-0.51057 3.957997,-1.02712 5.841797,-1.64258 0.966637,-0.3049 1.915512,-0.62482 2.841797,-0.96094 -0.02152,0.1646 -0.05299,0.33225 -0.06055,0.49219 0.0051,0.59279 0.08476,1.1447 0.296875,1.66602 0.103858,0.25975 0.225763,0.5055 0.359375,0.73046 0.13617,0.22575 0.288814,0.43264 0.433594,0.60938 0.144641,0.17698 0.282434,0.32368 0.384765,0.42578 l 0.164063,0.1582 c 0,0 -0.0361,-0.047 -0.107422,-0.13671 -0.06104,-0.085 -0.150707,-0.20954 -0.230469,-0.35743 -0.158091,-0.29553 -0.273175,-0.67913 -0.269531,-1.0957 0.0085,-0.20523 0.03593,-0.42352 0.08984,-0.65039 0.05875,-0.22468 0.145062,-0.45701 0.265625,-0.69141 0.110335,-0.23921 0.246433,-0.48514 0.414062,-0.73242 0.165212,-0.24844 0.375863,-0.49252 0.580078,-0.75391 0.250505,-0.31558 0.56396,-0.6271 0.896485,-0.94335 1.518431,-0.65329 2.907072,-1.37298 4.220703,-2.11133 1.466138,-0.83773 2.812968,-1.71226 3.935547,-2.65235 1.129384,-0.93531 2.140825,-1.88257 2.917968,-2.87109 0.77616,-0.98901 1.674444,-2.42756 2.363282,-3.71484 0.765065,-1.42982 -0.651205,-3.9863 1.964843,-4.45118 1.246923,-0.22156 3.302923,0.16495 6.25,0.84375 -3.485958,-1.10186 -6.101573,-1.79613 -7.919922,-1.87304 -1.038713,-0.0439 -1.795827,0.075 -2.394531,0.28125 -0.298924,-1.24812 -0.804719,-2.58987 -1.517578,-4.01563 -0.47612,-0.95229 -2.003906,-3.09375 -2.003906,-3.09375 z"
       transform="translate(0,692.36214)"
       id="path7976"
       inkscape:connector-curvature="0" />
    <path
       style="fill:#c8ab37;fill-opacity:1"
       d="m 19.664062,971.93639 -0.21289,0.24023 c -0.130162,0.15461 -0.300318,0.37368 -0.460938,0.63477 -0.161036,0.26079 -0.317011,0.56401 -0.425781,0.88672 -0.10422,0.32114 -0.169333,0.66535 -0.189453,1.02539 -0.04754,0.72331 0.189974,1.46041 0.605469,2.23242 0.469046,0.74526 1.127727,1.52105 2.066406,2.25391 0.95908,0.72211 2.064757,1.47079 3.496094,2.125 1.401286,0.67016 2.984575,1.32057 4.835937,1.88086 0.916464,0.2868 1.913764,0.53981 2.88086,0.81445 0.479942,0.13956 0.960589,0.28116 1.447265,0.42188 0.478823,0.14475 0.962552,0.28827 1.447266,0.43359 1.912966,0.59406 3.781697,1.23635 5.576172,1.91797 1.769188,0.68895 4.830285,2.18966 6.896484,3.47656 0.581208,0.55529 1.145065,1.11873 1.632813,1.7207 1.663892,2.05358 3.468068,4.04352 4.28125,6.51172 l 0.002,0 c 0.672394,2.04084 0.333741,4.41824 0.488281,6.84184 -0.02382,0.9448 -0.501953,3.0312 -0.501953,3.0312 0,0 1.527786,-2.1414 2.003906,-3.0937 0.712859,-1.4258 1.218654,-2.7676 1.517578,-4.0157 0.598704,0.2063 1.355818,0.3252 2.394531,0.2813 1.818349,-0.077 4.433964,-0.7712 7.919922,-1.87306 -2.947077,0.67876 -5.003077,1.06536 -6.25,0.84376 -2.616048,-0.4648 -1.199778,-3.02138 -1.964843,-4.45118 -0.688838,-1.2873 -1.587122,-2.72587 -2.363282,-3.71485 -0.777143,-0.98852 -1.788584,-1.93578 -2.917968,-2.87109 -1.122579,-0.94009 -2.469409,-1.81462 -3.935547,-2.65235 -1.313064,-0.73803 -2.701093,-1.45631 -4.21875,-2.10937 -0.333281,-0.3169 -0.64744,-0.6291 -0.898438,-0.94531 -0.204215,-0.26138 -0.414866,-0.50547 -0.580078,-0.75391 -0.167629,-0.24728 -0.303727,-0.49321 -0.414062,-0.73242 -0.120563,-0.2344 -0.206875,-0.46673 -0.265625,-0.69141 -0.05391,-0.22687 -0.08134,-0.44516 -0.08984,-0.65039 -0.0036,-0.41657 0.11144,-0.80017 0.269531,-1.0957 0.07976,-0.14789 0.169429,-0.27242 0.230469,-0.35742 0.07132,-0.0897 0.107422,-0.13672 0.107422,-0.13672 l -0.164063,0.1582 c -0.102331,0.1021 -0.240124,0.2488 -0.384765,0.42578 -0.14478,0.17674 -0.297424,0.38363 -0.433594,0.60938 -0.133612,0.22496 -0.255517,0.47072 -0.359375,0.73047 -0.212113,0.52132 -0.291775,1.07517 -0.296875,1.66797 0.0075,0.15965 0.0391,0.32593 0.06055,0.49023 -0.926282,-0.33612 -1.875162,-0.65604 -2.841797,-0.96094 -1.8838,-0.61546 -3.928614,-1.13201 -5.841797,-1.64258 -0.96508,-0.25285 -1.858077,-0.53143 -2.75,-0.79492 -0.887749,-0.26539 -1.728168,-0.53903 -2.519531,-0.82031 -1.550828,-0.58051 -3.038625,-1.11831 -4.234375,-1.70703 -0.593883,-0.29628 -1.186306,-0.56964 -1.69336,-0.85742 -0.511141,-0.28568 -0.958373,-0.57578 -1.349609,-0.86329 -0.408169,-0.27906 -0.745231,-0.56215 -1.023437,-0.84179 -0.270146,-0.28352 -0.482296,-0.56304 -0.646485,-0.82813 -0.306374,-0.54098 -0.352311,-1.0623 -0.25,-1.48047 0.05243,-0.20936 0.138829,-0.39197 0.199219,-0.51562 0.0775,-0.13191 0.11914,-0.19922 0.11914,-0.19922 z m -2.822265,2.85938 c 0,0 -0.08682,0.0855 -0.248047,0.25195 -0.154561,0.16412 -0.361669,0.40116 -0.568359,0.68164 -0.207718,0.281 -0.423061,0.61067 -0.59961,0.96484 -0.168679,0.3502 -0.311439,0.73 -0.414062,1.12891 -0.219052,0.80481 -0.167571,1.63331 0.02734,2.51562 0.233863,0.86321 0.687494,1.74399 1.382813,2.60352 0.343322,0.43233 0.74191,0.86195 1.207031,1.2793 0.450235,0.42485 0.976264,0.83259 1.548828,1.23633 1.140105,0.81001 2.517719,1.57445 4.111328,2.27734 0.386896,0.18024 0.81843,0.34574 1.244141,0.50976 0.424109,0.16532 0.846825,0.33378 1.275391,0.50196 0.420568,0.1722 0.842281,0.34465 1.265625,0.51953 0.421576,0.17602 0.842762,0.35453 1.269531,0.53125 0.844384,0.35779 1.658077,0.73808 2.464844,1.125 0.811632,0.38446 1.61218,0.77787 2.388672,1.18359 0.183589,0.0976 0.356964,0.20047 0.539062,0.29883 0.156584,0.33565 0.30903,0.67548 0.451172,1.01953 0.156128,0.39 0.298956,0.78585 0.431641,1.18555 0.135507,0.3983 0.263639,0.79983 0.36914,1.20703 0.05013,0.2051 0.101643,0.40658 0.152344,0.60937 0.04943,0.20331 0.09857,0.40583 0.146484,0.60743 0.0432,0.2041 0.087,0.40572 0.128907,0.60742 0.04054,0.2021 0.08167,0.40775 0.142578,0.59765 0.220413,0.77431 0.531348,1.47395 0.925781,2.08988 0.195767,0.3086 0.404008,0.6008 0.640625,0.8652 0.227889,0.2687 0.480122,0.5129 0.744141,0.7363 0.522303,0.4493 1.110299,0.8073 1.728515,1.0742 0.64078,0.2552 1.267127,0.4422 1.931641,0.5176 0.328151,0.04 0.649161,0.061 0.953125,0.065 0.308607,0 0.606785,-0.018 0.865234,-0.043 0.257895,-0.025 0.480997,-0.061 0.638672,-0.09 0.160792,-0.03 0.246094,-0.047 0.246094,-0.047 0,0 -0.06337,-2e-4 -0.181641,0.01 -0.11349,0 -0.272371,0 -0.453125,-0.014 -0.180247,-0.017 -0.372633,-0.054 -0.568359,-0.1133 -0.202112,-0.056 -0.404255,-0.1369 -0.597656,-0.2441 -0.188794,-0.1096 -0.3809,-0.2391 -0.570313,-0.3907 -0.186632,-0.153 -0.362379,-0.3326 -0.523437,-0.5371 -0.342424,-0.3988 -0.647924,-0.8888 -0.929688,-1.4492 -0.139768,-0.2807 -0.26821,-0.5818 -0.398437,-0.89452 -0.120731,-0.3173 -0.245437,-0.64599 -0.355469,-0.99219 -0.218653,-0.6934 -0.417282,-1.43948 -0.566406,-2.23828 -0.05961,-0.32675 -0.120467,-0.66173 -0.181641,-0.99609 3.960441,2.69431 6.924108,5.47128 8.576172,9.13278 0.587387,1.3019 0.339844,4.5801 0.339844,4.5801 0,0 1.716194,-3.9486 1.646484,-5.5039 -0.218604,-4.8754 -2.456584,-8.45086 -6.466797,-11.86523 -1.214409,-0.97119 -2.530236,-1.91623 -4.017578,-2.77344 -0.743837,-0.428 -1.491176,-0.85541 -2.283203,-1.25586 -0.799427,-0.39595 -1.604251,-0.78654 -2.44336,-1.15234 -0.815697,-0.37809 -1.680025,-0.72476 -2.546874,-1.06055 -0.875176,-0.32778 -1.741867,-0.64868 -2.59375,-0.9668 -1.68955,-0.63551 -3.233475,-1.2993 -4.648438,-1.95312 -0.705861,-0.32747 -1.364781,-0.66157 -2,-0.98438 -0.619759,-0.3311 -1.214751,-0.65319 -1.757812,-0.97656 -1.082251,-0.64871 -1.994057,-1.2841 -2.681641,-1.9082 -0.361165,-0.30344 -0.656909,-0.60948 -0.888672,-0.91211 -0.226857,-0.30512 -0.403334,-0.599 -0.537109,-0.87891 -0.125943,-0.28387 -0.190266,-0.56211 -0.197266,-0.82617 -0.01782,-0.2586 0.01105,-0.50049 0.07813,-0.7168 0.06824,-0.21664 0.161432,-0.40062 0.232422,-0.52929 0.08042,-0.13267 0.125,-0.20117 0.125,-0.20117 z"
       id="path7986"
       inkscape:connector-curvature="0" />
    <text
       xml:space="preserve"
       style="font-style:normal;font-variant:normal;font-weight:500;font-stretch:normal;font-size:12.67225838px;line-height:125%;font-family:'Helvetica Narrow';-inkscape-font-specification:'Helvetica Narrow Medium';text-align:start;letter-spacing:0px;word-spacing:1.26722586px;writing-mode:lr-tb;text-anchor:start;fill:#000000;fill-opacity:1;stroke:none;stroke-width:1px;stroke-linecap:butt;stroke-linejoin:miter;stroke-opacity:1"
       x="77.575569"
       y="1033.1184"
       id="text8014"
       sodipodi:linespacing="125%"><tspan
         sodipodi:role="line"
         id="tspan8016"
         x="77.575569"
         y="1033.1184">RSA 4096-BIT (TLS 1.3) 741b</tspan></text>
  </g>
</svg>
