<?xml version="1.0" encoding="UTF-8" standalone="no"?>
<!-- Created with Inkscape (http://www.inkscape.org/) -->

<svg
   xmlns:dc="http://purl.org/dc/elements/1.1/"
   xmlns:cc="http://creativecommons.org/ns#"
   xmlns:rdf="http://www.w3.org/1999/02/22-rdf-syntax-ns#"
   xmlns:svg="http://www.w3.org/2000/svg"
   xmlns="http://www.w3.org/2000/svg"
   xmlns:sodipodi="http://sodipodi.sourceforge.net/DTD/sodipodi-0.dtd"
   xmlns:inkscape="http://www.inkscape.org/namespaces/inkscape"
   width="440.12506"
   height="229.96378"
   id="svg2"
   version="1.1"
   inkscape:version="0.48.1 "
   sodipodi:docname="dontpanic.svg">
  <defs
     id="defs4" />
  <sodipodi:namedview
     id="base"
     pagecolor="#ffffff"
     bordercolor="#666666"
     borderopacity="1.0"
     inkscape:pageopacity="0.0"
     inkscape:pageshadow="2"
     inkscape:zoom="1.31"
     inkscape:cx="293.87207"
     inkscape:cy="111.66282"
     inkscape:document-units="px"
     inkscape:current-layer="layer1"
     showgrid="false"
     inkscape:window-width="1280"
     inkscape:window-height="738"
     inkscape:window-x="-8"
     inkscape:window-y="-8"
     inkscape:window-maximized="1"
     fit-margin-top="0"
     fit-margin-left="0"
     fit-margin-right="0"
     fit-margin-bottom="0" />
  <metadata
     id="metadata7">
    <rdf:RDF>
      <cc:Work
         rdf:about="">
        <dc:format>image/svg+xml</dc:format>
        <dc:type
           rdf:resource="http://purl.org/dc/dcmitype/StillImage" />
        <dc:title />
      </cc:Work>
    </rdf:RDF>
  </metadata>
  <g
     inkscape:label="Layer 1"
     inkscape:groupmode="layer"
     id="layer1"
     transform="translate(-39.624973,182.97574)">
    <path
       style="font-size:144px;font-style:normal;font-variant:normal;font-weight:normal;font-stretch:normal;text-align:center;line-height:89.99999762%;letter-spacing:6px;writing-mode:lr-tb;text-anchor:middle;fill:#ffffff;fill-opacity:0.94117647;stroke:#000000;font-family:Neutra Display Titling;-inkscape-font-specification:Neutra Display Titling"
       d="m 260.26059,-182.47358 c -0.48785,-0.0226 -1.03808,0.0736 -1.625,0.40625 -1.26295,0.71654 -1.6923,2.23024 -1.6875,3.21875 l -0.0312,0 0,0.0937 0,99.093753 a 2.5825188,2.5825188 0 0 0 2.59375,2.59375 l 24.625,0 a 2.5825188,2.5825188 0 0 0 2.59375,-2.59375 l 0,-43.343753 57.28125,47.093753 c 0.47149,0.38051 0.91214,0.69393 1.46875,0.96875 0.55661,0.27482 1.38724,0.70266 2.65625,0.21875 0.88101,-0.33617 1.56115,-1.17989 1.8125,-1.84375 0.24229,-0.63993 0.29101,-1.14185 0.28125,-1.625 -3.6e-4,-0.0181 4.5e-4,-0.0445 0,-0.0625 l 0,-99.312503 a 2.5825188,2.5825188 0 0 0 -2.59375,-2.59375 l -24.625,0 a 2.5825188,2.5825188 0 0 0 -2.59375,2.59375 l 0,43.59375 -57.21875,-47.1875 a 2.5825188,2.5825188 0 0 0 -0.0625,-0.0312 c -0.50964,-0.39937 -0.98502,-0.74527 -1.625,-1 -0.31999,-0.12736 -0.76215,-0.2586 -1.25,-0.28125 z"
       id="path4918"
       inkscape:connector-curvature="0" />
    <path
       style="font-size:144px;font-style:normal;font-variant:normal;font-weight:normal;font-stretch:normal;text-align:center;line-height:89.99999762%;letter-spacing:6px;writing-mode:lr-tb;text-anchor:middle;fill:#ffffff;fill-opacity:0.94117647;stroke:#000000;font-family:Neutra Display Titling;-inkscape-font-specification:Neutra Display Titling"
       d="m 398.59014,-180.16108 a 2.5825188,2.5825188 0 0 0 -2.59375,2.59375 l 0,22.03125 a 2.5825188,2.5825188 0 0 0 2.59375,2.59375 l 23.34375,0 0,73.281253 a 2.5825188,2.5825188 0 0 0 2.59375,2.59375 l 26.1875,0 a 2.5825188,2.5825188 0 0 0 2.59375,-2.59375 l 0,-73.281253 23.34375,0 a 2.5825188,2.5825188 0 0 0 2.59375,-2.59375 l 0,-22.03125 a 2.5825188,2.5825188 0 0 0 -2.59375,-2.59375 l -78.0625,0 z"
       id="path4912"
       inkscape:connector-curvature="0" />
    <path
       id="path4910"
       style="font-size:144px;font-style:normal;font-variant:normal;font-weight:normal;font-stretch:normal;text-align:center;line-height:89.99999762%;letter-spacing:6px;writing-mode:lr-tb;text-anchor:middle;fill:#ffffff;fill-opacity:0.94117647;stroke:#000000;font-family:Neutra Display Titling;-inkscape-font-specification:Neutra Display Titling"
       d="m 194.75599,-153.37983 c 0.0443,9.5e-4 0.0809,-0.001 0.125,0 7.66441,0.1898 13.12305,2.51891 17.03125,7 3.99836,4.58475 6.03696,10.38575 6.09375,17.75 -1.3e-4,0.0218 1.7e-4,0.0408 0,0.0625 -0.0568,7.37079 -2.08869,13.18227 -6.09375,17.8125 -3.91036,4.52065 -9.36892,6.86721 -17.03125,7.0625 -0.0443,-9.8e-4 -0.0809,0.001 -0.125,0 -7.66245,-0.19529 -13.12101,-2.54188 -17.03125,-7.0625 -4.00517,-4.63023 -6.03705,-10.44173 -6.09375,-17.8125 7e-5,-0.0109 -7e-5,-0.0204 0,-0.0312 -7e-5,-0.0109 7e-5,-0.0204 0,-0.0312 0.0567,-7.36423 2.0953,-13.16526 6.09375,-17.75 3.90808,-4.48107 9.36673,-6.81021 17.03125,-7 z m 0.0312,-27.9375 c -15.067,0.25195 -28.0735,5.19857 -38.5625,14.6875 -10.54953,9.54384 -16.12062,22.40653 -16.5625,37.96875 a 2.5825188,2.5825188 0 0 0 0,0.125 c 0.44186,15.56806 5.9854,28.44673 16.53125,38.031253 10.48876,9.53271 23.52564,14.49192 38.59375,14.75 a 2.5825188,2.5825188 0 0 0 0.0625,0 c 15.06801,-0.25808 28.10489,-5.2173 38.59375,-14.75 10.54573,-9.584523 16.08927,-22.463203 16.53125,-38.031253 a 2.5825188,2.5825188 0 0 0 0,-0.125 c -0.44194,-15.56221 -6.01303,-28.42491 -16.56245,-37.96875 -10.48911,-9.48892 -23.49561,-14.43556 -38.5625,-14.6875 a 2.5825188,2.5825188 0 0 0 -0.0625,0 z"
       inkscape:connector-curvature="0" />
    <path
       id="path4908"
       style="font-size:144px;font-style:normal;font-variant:normal;font-weight:normal;font-stretch:normal;text-align:center;line-height:89.99999762%;letter-spacing:6px;writing-mode:lr-tb;text-anchor:middle;fill:#ffffff;fill-opacity:0.94117647;stroke:#000000;font-family:Neutra Display Titling;-inkscape-font-specification:Neutra Display Titling"
       d="m 71.531761,-152.78608 6.15625,0 c 0.01107,1.4e-4 0.02018,-1.5e-4 0.03125,0 7.476264,0.0988 12.893369,2.26191 16.875002,6.46875 3.98783,4.21362 6.071347,9.95215 6.156247,17.6875 2.4e-4,0.022 -2.1e-4,0.0404 0,0.0625 -0.0849,7.73546 -2.168437,13.47398 -6.156247,17.6875 -3.981637,4.20692 -9.398757,6.37002 -16.875002,6.46875 l -0.03125,0 -6.15625,0 0,-48.375 z m -28.8125,-27.375 a 2.5825188,2.5825188 0 0 0 -2.59375,2.59375 l 0,97.906253 a 2.5825188,2.5825188 0 0 0 2.59375,2.59375 l 37.875,0 a 2.5825188,2.5825188 0 0 0 0.03125,0 c 14.916172,-0.14594 27.448579,-4.73976 37.093749,-13.78125 9.70513,-9.09783 14.69003,-21.849983 15,-37.687503 a 2.5825188,2.5825188 0 0 0 0,-0.125 c -0.30997,-15.83742 -5.29489,-28.58957 -15,-37.6875 -9.6429,-9.03925 -22.173857,-13.66643 -37.093749,-13.8125 a 2.5825188,2.5825188 0 0 0 -0.03125,0 l -37.875,0 z"
       inkscape:connector-curvature="0" />
    <path
       style="font-size:144px;font-style:normal;font-variant:normal;font-weight:normal;font-stretch:normal;text-align:center;line-height:89.99999762%;letter-spacing:6px;writing-mode:lr-tb;text-anchor:middle;fill:#ffffff;fill-opacity:0.94117647;stroke:#000000;font-family:Neutra Display Titling;-inkscape-font-specification:Neutra Display Titling"
       d="m 235.20397,-61.444124 c -0.50476,-0.0353 -1.08739,0.0349 -1.6875,0.375 -1.26295,0.71654 -1.6923,2.23024 -1.6875,3.21875 l -0.0312,0 0,0.0937 0,99.125 a 2.5825188,2.5825188 0 0 0 2.59375,2.59375 l 24.625,0 a 2.5825188,2.5825188 0 0 0 2.59375,-2.59375 l 0,-43.3437508 57.25,47.0625008 c 0.47149,0.38051 0.91214,0.69393 1.46875,0.96875 0.55661,0.27482 1.38724,0.70266 2.65625,0.21875 0.85223,-0.32519 1.53246,-1.08752 1.8125,-1.75 0.27051,-0.63993 0.32184,-1.19115 0.3125,-1.71875 -3.3e-4,-0.0186 4.6e-4,-0.044 0,-0.0625 l 0,-99.3125 a 2.5825188,2.5825188 0 0 0 -2.59375,-2.59375 l -24.625,0 a 2.5825188,2.5825188 0 0 0 -2.59375,2.59375 l 0,43.625 -57.25,-47.1875 a 2.5825188,2.5825188 0 0 0 -0.0625,-0.0312 c -0.47952,-0.37578 -0.91704,-0.69895 -1.53125,-0.96875 -0.30711,-0.1349 -0.74524,-0.27722 -1.25,-0.3125 z"
       id="path4904"
       inkscape:connector-curvature="0" />
    <path
       style="font-size:144px;font-style:normal;font-variant:normal;font-weight:normal;font-stretch:normal;text-align:center;line-height:89.99999762%;letter-spacing:6px;writing-mode:lr-tb;text-anchor:middle;fill:#ffffff;fill-opacity:0.94117647;stroke:#000000;font-family:Neutra Display Titling;-inkscape-font-specification:Neutra Display Titling"
       d="m 432.12737,-60.319124 c -14.09821,0.25331 -26.37759,5.22619 -36.34375,14.71875 -10.03434,9.55764 -15.30892,22.40347 -15.75,37.9374994 a 2.5825188,2.5825188 0 0 0 0,0.125 c 0.41957,15.5490703 5.75544,28.4051306 15.96875,38.0000006 10.15908,9.54398 22.86105,14.52267 37.5625,14.78125 a 2.5825188,2.5825188 0 0 0 0.0312,0 c 10.21447,0.0465 19.09329,-1.88359 26.5625,-5.875 7.48377,-3.99928 13.75014,-10.2963 18.71875,-18.71875 a 2.5825188,2.5825188 0 0 0 -0.8125,-3.5 L 457.87737,4.1808752 a 2.5825188,2.5825188 0 0 0 -3.71875,1.0312504 c -1.81899,3.6159901 -4.25487,6.4714504 -7.46875,8.7187504 -2.96817,2.07545 -7.333,3.28806 -13.1875,3.375 -0.0332,-8e-4 -0.0606,9e-4 -0.0937,0 -6.93002,-0.18846 -11.87509,-2.46168 -15.59375,-7 -3.78767,-4.6224004 -5.73938,-10.47318084 -5.8125,-17.8750006 9e-5,-0.0109 -10e-5,-0.0204 0,-0.0312 -10e-5,-0.0109 9e-5,-0.0203 0,-0.0312 0.0729,-7.4117994 1.97632,-13.2394994 5.625,-17.8124994 3.57834,-4.48479 8.30149,-6.74831 14.90625,-6.9375 0.0471,9.7e-4 0.0781,-10e-4 0.125,0 5.71456,0.13563 9.95329,1.32237 12.8125,3.25 3.18429,2.14701 5.49555,4.52205 7.0625,7.15625 a 2.5825188,2.5825188 0 0 0 3.65625,0.8125 l 19.7187,-13.40635 a 2.5825188,2.5825188 0 0 0 0.71875,-3.53125 c -4.26114,-6.5183 -9.99359,-11.82858 -17.15625,-15.875 -7.31957,-4.13477 -16.45559,-6.22006 -27.28125,-6.34375 a 2.5825188,2.5825188 0 0 0 -0.0625,0 z"
       id="path4902"
       inkscape:connector-curvature="0" />
    <path
       style="font-size:144px;font-style:normal;font-variant:normal;font-weight:normal;font-stretch:normal;text-align:center;line-height:89.99999762%;letter-spacing:6px;writing-mode:lr-tb;text-anchor:middle;fill:#ffffff;fill-opacity:0.94117647;stroke:#000000;font-family:Neutra Display Titling;-inkscape-font-specification:Neutra Display Titling"
       d="m 339.4627,-59.162874 a 2.5825188,2.5825188 0 0 0 -2.59375,2.59375 l 0,97.9375 a 2.5825188,2.5825188 0 0 0 2.59375,2.59375 l 26.21875,0 a 2.5825188,2.5825188 0 0 0 2.59375,-2.59375 l 0,-97.9375 a 2.5825188,2.5825188 0 0 0 -2.59375,-2.59375 l -26.21875,0 z"
       id="path4898"
       inkscape:connector-curvature="0" />
    <path
       id="path4896"
       style="font-size:144px;font-style:normal;font-variant:normal;font-weight:normal;font-stretch:normal;text-align:center;line-height:89.99999762%;letter-spacing:6px;writing-mode:lr-tb;text-anchor:middle;fill:#ffffff;fill-opacity:0.94117647;stroke:#000000;font-family:Neutra Display Titling;-inkscape-font-specification:Neutra Display Titling"
       d="m 71.500511,-31.787874 7.03125,0 c 0.01149,1.7e-4 0.01978,-1.8e-4 0.03125,0 5.38867,0.0831 8.680282,1.42178 10.531247,3.625 2.03195,2.41886 3.05985,5.64183 3,10.03125 a 2.5825188,2.5825188 0 0 0 0,0.0625 c 0.0598,4.3832 -0.97486,7.529749 -3,9.9062494 -1.845481,2.16565 -5.139583,3.51621 -10.531247,3.59375 l -0.03125,0 -7.03125,0 0,-27.2187494 z m -28.78125,-27.375 a 2.5825188,2.5825188 0 0 0 -2.59375,2.59375 l 0,97.9375 a 2.5825188,2.5825188 0 0 0 2.59375,2.59375 l 26.1875,0 a 2.5825188,2.5825188 0 0 0 2.59375,-2.59375 l 0,-18.59375 8.375,0 a 2.5825188,2.5825188 0 0 0 0.03125,0 c 13.697707,-0.24508 24.651959,-4.12611 32.281239,-11.78125 7.54338,-7.5690208 11.36505,-17.4126106 11.4375,-29.0625 a 2.5825188,2.5825188 0 0 0 0,-0.0625 c -0.0725,-11.65541 -3.89358,-21.573 -11.4375,-29.1875 -7.62823,-7.69926 -18.551022,-11.59232 -32.249989,-11.84375 a 2.5825188,2.5825188 0 0 0 -0.0625,0 l -37.15625,0 z"
       inkscape:connector-curvature="0" />
    <path
       id="path4123"
       style="font-size:144px;font-style:normal;font-variant:normal;font-weight:normal;font-stretch:normal;text-align:center;line-height:89.99999762%;letter-spacing:6px;writing-mode:lr-tb;text-anchor:middle;fill:#ffffff;fill-opacity:0.94117647;stroke:#000000;font-family:Neutra Display Titling;-inkscape-font-specification:Neutra Display Titling"
       d="m 167.9329,-2.8503748 6.0625,13.6875008 -11.9375,0 5.875,-13.6875008 z m 1.125,-58.7812492 c -1.5614,4.6e-4 -2.72333,1.24857 -3.1875,2.21875 -0.005,0.0114 -0.026,0.0199 -0.0312,0.0312 l -47.6563,99.62505 a 2.5825188,2.5825188 0 0 0 2.34375,3.71875 l 25.625,0 a 2.5825188,2.5825188 0 0 0 2.375,-1.5625 l 2.9375,-6.8125 7.90625,0 17.78125,0 7.8125,0 3.0625,6.84375 a 2.5825188,2.5825188 0 0 0 2.34375,1.53125 l 27.0625,0 a 2.5825188,2.5825188 0 0 0 2.34375,-3.71875 l -47.5,-99.625 c -0.003,-0.006 0.003,-0.025 0,-0.0312 l -0.0312,0 c -0.46423,-0.96995 -1.62591,-2.21829 -3.1875,-2.21875 z"
       inkscape:connector-curvature="0" />
    <g
       transform="matrix(0.99312349,0.11707151,-0.11707151,0.99312349,-5.830118,-257.71472)"
       style="font-size:144px;font-style:normal;font-variant:normal;font-weight:normal;font-stretch:normal;text-align:center;line-height:100%;letter-spacing:7.83000231px;writing-mode:lr-tb;text-anchor:middle;fill:#ffffff;fill-opacity:1;stroke:#000000;stroke-width:1;font-family:Neutra Display Titling;-inkscape-font-specification:Neutra Display Titling"
       id="text2991">
      <path
         d="m 386.625,30.28125 c -4.19677,0.06194 -7.8974,1.496471 -10.875,4.1875 -3.03022,2.738615 -4.62039,6.536845 -4.75,11.03125 a 1.5752865,1.5752865 0 0 0 0,0.03125 c 0.0228,3.253299 0.84042,6.22435 2.5,8.71875 1.02869,1.546177 2.81735,2.897536 4.78125,4.1875 1.46211,0.960372 2.85304,1.589568 4.1875,2.1875 -0.45804,1.636378 -2.54146,8.732859 -7.375,13.125 a 1.5752865,1.5752865 0 0 0 1.8125,2.53125 c 0,0 8.74159,-4.677659 15.34375,-11.125 4.02065,-3.926368 7.72442,-8.868643 8.96875,-11.75 1.09503,-2.535747 1.65819,-5.154487 1.6875,-7.84375 a 1.5752865,1.5752865 0 0 0 0,-0.09375 c -0.13637,-4.50229 -1.78587,-8.297779 -4.9375,-11.03125 -3.10016,-2.688728 -6.9471,-4.094677 -11.28125,-4.15625 a 1.5752865,1.5752865 0 0 0 -0.0625,0 z"
         id="path4937"
         inkscape:connector-curvature="0" />
    </g>
  </g>
</svg>
